<svg width="765" height="202" viewBox="0 0 765 202" version="1.1" xmlns="http://www.w3.org/2000/svg" xmlns:xlink="http://www.w3.org/1999/xlink" xmlns:figma="http://www.figma.com/figma/ns">
<title>Group</title>
<desc>Created using Figma</desc>
<g id="Canvas" transform="translate(384 113)" figma:type="canvas">
<g id="Group" style="mix-blend-mode:normal;" figma:type="frame">
<g id="Matt Kerchner" style="mix-blend-mode:normal;" figma:type="vector">
<use xlink:href="#path0_fill" transform="translate(-384 -113)" fill="#111111" style="mix-blend-mode:normal;"/>
<use xlink:href="#path1_fill" transform="translate(-384 -113)" fill="#111111" style="mix-blend-mode:normal;"/>
<use xlink:href="#path2_fill" transform="translate(-384 -113)" fill="#111111" style="mix-blend-mode:normal;"/>
<use xlink:href="#path3_fill" transform="translate(-384 -113)" fill="#111111" style="mix-blend-mode:normal;"/>
<use xlink:href="#path4_fill" transform="translate(-384 -113)" fill="#111111" style="mix-blend-mode:normal;"/>
<use xlink:href="#path5_fill" transform="translate(-384 -113)" fill="#111111" style="mix-blend-mode:normal;"/>
<use xlink:href="#path6_fill" transform="translate(-384 -113)" fill="#111111" style="mix-blend-mode:normal;"/>
<use xlink:href="#path7_fill" transform="translate(-384 -113)" fill="#111111" style="mix-blend-mode:normal;"/>
</g>
</g>
</g>
<defs>
<path id="path0_fill" d="M 24.6974 139.281C 20.0928 139.281 16.1859 138.303 12.9766 136.345C 9.90687 134.527 7.39527 132.08 5.4418 129.003C 3.48833 125.927 2.093 122.431 1.2558 118.515C 0.4186 114.6 0 110.684 0 106.768C 0 102.573 0.488367 97.9585 1.4651 92.9242C 2.44183 87.8899 3.9767 82.6459 6.0697 77.1921C 8.1627 71.5985 10.8138 65.9349 14.0231 60.2015C 17.2324 54.468 21.0695 48.8744 25.5346 43.4206C 32.6508 34.6106 40.0461 27.4787 47.7204 22.0249C 55.5343 16.4313 62.9296 12.0962 69.9062 9.01973C 76.8829 5.80339 83.2317 3.63586 88.9525 2.51713C 94.6734 1.25857 99.1385 0.629283 102.348 0.629283C 113.231 0.629283 120.627 2.65697 124.534 6.71236C 125.371 7.5514 125.789 8.46037 125.789 9.43925C 125.789 10.6978 125.51 11.5369 124.952 11.9564C 124.534 12.3759 124.045 12.7255 123.487 13.0052C 123.348 13.145 122.72 14.6134 121.603 17.4102C 120.627 20.207 119.162 23.9827 117.208 28.7373C 114.557 35.0301 111.557 42.162 108.208 50.1329C 104.859 57.964 101.58 65.5853 98.371 72.9969C 97.9524 73.9758 97.4641 75.0246 96.9059 76.1433C 96.3478 77.262 95.9292 78.3108 95.6501 79.2897C 93.6967 83.7646 91.7432 88.2395 89.7897 92.7144C 87.8363 97.1893 86.0921 101.454 84.5572 105.51C 83.1619 109.565 81.9759 113.341 80.9991 116.837C 80.1619 120.193 79.7433 123.06 79.7433 125.437C 79.7433 129.213 81.4177 131.101 84.7665 131.101C 86.9991 131.101 89.72 130.052 92.9292 127.954C 96.1385 125.717 99.4175 123.06 102.766 119.983C 106.115 116.907 109.394 113.621 112.603 110.125C 115.952 106.629 118.813 103.552 121.185 100.895C 122.022 100.056 122.999 99.6366 124.115 99.6366C 125.51 99.6366 126.487 100.126 127.045 101.105C 127.743 101.944 128.092 102.853 128.092 103.832C 128.092 104.251 127.952 104.741 127.673 105.3C 127.534 105.859 127.324 106.279 127.045 106.559C 123.417 110.614 119.72 114.6 115.952 118.515C 112.324 122.431 108.697 125.927 105.069 129.003C 101.441 132.08 97.8827 134.527 94.3943 136.345C 91.0455 138.303 87.8363 139.281 84.7665 139.281C 80.3015 139.281 77.0224 138.023 74.9294 135.506C 72.8364 132.849 71.7899 129.562 71.7899 125.647C 71.7899 122.85 72.2783 119.564 73.255 115.788C 74.2318 111.873 75.4876 107.817 77.0224 103.622C 73.3946 108.097 69.4179 112.502 65.0923 116.837C 60.9063 121.032 56.511 124.808 51.9064 128.164C 47.4414 131.52 42.9065 134.177 38.3019 136.135C 33.6973 138.233 29.1625 139.281 24.6974 139.281ZM 95.4408 59.3624C 99.0687 51.1118 102.627 42.8612 106.115 34.6106C 109.603 26.2201 112.743 18.2492 115.534 10.6978C 114.278 10.1385 112.534 9.71893 110.301 9.43925C 108.069 9.01973 105.417 8.80997 102.348 8.80997C 99.4175 8.80997 95.3711 9.29941 90.2083 10.2783C 85.0456 11.2572 79.255 13.215 72.8364 16.1516C 66.4179 18.9484 59.5808 22.9339 52.325 28.108C 45.2088 33.2821 38.3019 40.0644 31.6043 48.4548C 27.4183 53.6289 23.8602 58.873 20.93 64.1869C 17.9998 69.361 15.558 74.4652 13.6045 79.4995C 11.651 84.5338 10.1859 89.3583 9.2092 93.973C 8.372 98.5877 7.9534 102.783 7.9534 106.559C 7.9534 109.495 8.23247 112.432 8.7906 115.369C 9.34874 118.165 10.2557 120.753 11.5115 123.13C 12.9068 125.507 14.651 127.465 16.744 129.003C 18.837 130.402 21.3486 131.101 24.2788 131.101C 30.4183 131.101 36.767 128.933 43.3251 124.598C 49.8832 120.263 56.1622 114.809 62.1621 108.237C 68.3016 101.664 73.9527 94.6023 79.1154 87.0509C 84.4177 79.4995 88.8828 72.4375 92.5106 65.865C 92.9292 65.026 93.4176 63.9772 93.9757 62.7186C 94.6734 61.3202 95.1618 60.2015 95.4408 59.3624Z"/>
<path id="path1_fill" d="M 179.256 138.652C 177.721 138.652 176.605 138.163 175.907 137.184C 175.209 136.345 174.86 135.366 174.86 134.247C 174.86 133.408 175.209 132.15 175.907 130.471C 176.605 128.793 177.442 127.045 178.419 125.227C 179.395 123.27 180.372 121.452 181.349 119.774C 182.325 117.956 183.093 116.487 183.651 115.369C 185.325 110.474 186.791 105.37 188.046 100.056C 189.442 94.7421 190.139 90.0575 190.139 86.0021C 190.139 84.4638 190 82.8557 189.721 81.1776C 189.442 79.4995 188.604 78.6604 187.209 78.6604C 184 78.6604 180.302 80.828 176.116 85.163C 172.07 89.3583 167.954 94.4624 163.768 100.476C 159.721 106.489 155.884 112.712 152.256 119.144C 148.628 125.437 145.768 130.681 143.675 134.876C 143.256 135.576 142.698 136.275 142 136.974C 141.303 137.673 140.465 138.023 139.489 138.023C 138.093 138.023 137.047 137.533 136.349 136.555C 135.791 135.715 135.512 134.876 135.512 134.037C 135.512 132.779 135.861 131.45 136.558 130.052C 137.256 128.514 138.163 126.975 139.279 125.437C 140.954 122.361 142.698 119.004 144.512 115.369C 146.465 111.593 148.21 107.817 149.744 104.042C 151.279 100.266 152.535 96.6999 153.512 93.3437C 154.628 89.8477 155.186 86.7013 155.186 83.9045C 155.186 82.7857 155.047 81.7369 154.768 80.7581C 154.489 79.6393 153.861 79.08 152.884 79.08C 151.628 79.08 150.233 79.8491 148.698 81.3873C 147.582 82.3662 146.256 83.7646 144.721 85.5826C 143.186 87.2606 141.582 89.0786 139.907 91.0363C 138.233 92.9941 136.558 94.9519 134.884 96.9097C 133.21 98.8674 131.745 100.615 130.489 102.154L 126.721 106.559C 126.303 106.978 125.884 107.328 125.466 107.607C 125.047 107.887 124.489 108.027 123.791 108.027C 122.675 108.027 121.698 107.677 120.861 106.978C 120.024 106.139 119.605 105.16 119.605 104.042C 119.605 102.783 119.954 101.804 120.652 101.105C 121.21 100.266 122.396 98.7276 124.21 96.4901C 126.163 94.2527 128.256 91.8055 130.489 89.1485C 132.721 86.4915 134.954 83.9045 137.186 81.3873C 139.558 78.8702 141.512 76.9124 143.047 75.514C 146.256 72.5774 149.605 71.109 153.093 71.109C 156.721 71.109 159.302 72.5074 160.837 75.3043C 162.512 77.9612 163.349 80.758 163.349 83.6947C 163.349 84.3939 163.279 85.163 163.14 86.0021C 163.14 86.7013 163.07 87.4005 162.93 88.0997C 166.977 83.0654 171.093 78.8702 175.279 75.514C 179.465 72.1578 183.442 70.4798 187.209 70.4798C 189.302 70.4798 191.046 70.9692 192.442 71.9481C 193.976 72.927 195.163 74.1855 196 75.7238C 196.837 77.262 197.395 78.9401 197.674 80.7581C 198.093 82.4361 198.302 84.1142 198.302 85.7923C 198.302 87.3306 198.232 88.8688 198.093 90.4071C 197.953 91.8055 197.744 93.3437 197.465 95.0218C 202.767 88.1696 208.279 82.4361 214 77.8214C 219.72 73.0668 225.511 70.6895 231.371 70.6895C 234.86 70.6895 237.441 71.6684 239.116 73.6262C 240.929 75.5839 241.836 78.1011 241.836 81.1776C 241.836 84.2541 241.069 87.82 239.534 91.8754C 238.139 95.9308 236.464 100.266 234.511 104.881L 233.255 107.817C 231.581 111.733 229.976 115.718 228.441 119.774C 226.906 123.829 226.139 126.975 226.139 129.213C 226.139 129.912 226.278 130.262 226.558 130.262C 228.79 130.262 232.697 127.814 238.278 122.92C 243.86 118.026 250.976 110.684 259.627 100.895C 260.604 99.9162 261.65 99.4268 262.766 99.4268C 265.418 99.4268 266.743 100.755 266.743 103.412C 266.743 104.671 266.325 105.72 265.487 106.559C 246.371 127.814 233.395 138.442 226.558 138.442C 223.627 138.442 221.465 137.603 220.069 135.925C 218.674 134.107 217.976 131.87 217.976 129.213C 217.976 126.136 218.744 122.501 220.279 118.305C 221.813 113.97 223.697 109.355 225.93 104.461C 227.744 100.546 229.488 96.3503 231.162 91.8754C 232.837 87.4005 233.674 83.8345 233.674 81.1776C 233.674 79.6393 232.906 78.8702 231.371 78.8702C 228.441 78.8702 225.162 80.1987 221.534 82.8557C 218.046 85.3728 214.488 88.5891 210.86 92.5047C 207.232 96.4202 203.744 100.685 200.395 105.3C 197.046 109.915 194.046 114.25 191.395 118.305C 189.581 123.2 187.767 127.535 185.953 131.31C 184.279 134.946 182.953 137.114 181.977 137.813C 180.86 138.372 179.953 138.652 179.256 138.652Z"/>
<path id="path2_fill" d="M 279.324 202C 275.138 202 271.65 200.462 268.859 197.385C 266.208 194.309 264.882 190.813 264.882 186.897C 264.882 183.961 265.44 181.164 266.557 178.507C 267.673 175.85 269.068 173.333 270.743 170.955C 272.417 168.578 274.301 166.341 276.394 164.243C 278.487 162.285 280.51 160.467 282.464 158.789C 287.347 154.734 292.51 150.818 297.952 147.043C 303.394 143.267 308.347 139.981 312.812 137.184C 314.207 133.828 315.324 131.101 316.161 129.003C 317.138 126.766 317.975 124.738 318.672 122.92C 319.37 121.102 320.068 119.284 320.765 117.466C 321.463 115.508 322.37 113.201 323.486 110.544C 320.975 113.76 318.184 116.977 315.114 120.193C 312.184 123.409 309.184 126.346 306.114 129.003C 303.045 131.52 300.045 133.618 297.115 135.296C 294.324 136.974 291.673 137.813 289.161 137.813C 285.812 137.813 283.44 136.904 282.045 135.086C 280.65 133.128 279.952 130.821 279.952 128.164C 279.952 124.249 280.789 119.983 282.464 115.369C 284.138 110.754 285.743 106.419 287.277 102.363C 288.533 98.7276 289.789 95.0218 291.045 91.2461C 292.301 87.4704 292.929 84.3939 292.929 82.0166C 292.929 81.3174 292.789 80.6881 292.51 80.1288C 292.37 79.4296 292.022 79.08 291.463 79.08C 290.487 79.08 289.231 79.7092 287.696 80.9678C 286.301 82.2264 284.696 83.8346 282.882 85.7923C 281.068 87.6103 279.185 89.6379 277.231 91.8754C 275.417 94.1128 273.673 96.2804 271.999 98.378L 264.254 107.607C 263.836 108.027 263.138 108.237 262.161 108.237C 260.627 108.237 259.58 107.817 259.022 106.978C 258.464 106.139 258.185 105.16 258.185 104.042C 258.185 102.643 258.603 101.664 259.441 101.105C 263.906 95.7909 267.743 91.2461 270.952 87.4704C 274.161 83.6947 277.022 80.6182 279.533 78.2409C 282.045 75.7238 284.208 73.9059 286.022 72.7871C 287.975 71.6684 289.859 71.109 291.673 71.109C 295.301 71.109 297.742 72.2977 298.998 74.675C 300.394 76.9124 301.091 79.3596 301.091 82.0166C 301.091 85.0931 300.463 88.5891 299.208 92.5047C 298.091 96.2804 296.766 100.266 295.231 104.461C 293.138 110.334 291.394 115.229 289.998 119.144C 288.743 122.92 288.115 125.787 288.115 127.745C 288.115 129.143 288.463 129.842 289.161 129.842C 291.812 129.842 295.231 128.024 299.417 124.388C 303.603 120.613 307.998 116.068 312.603 110.754C 317.207 105.44 321.672 99.7764 325.998 93.7632C 330.324 87.6102 333.882 82.1565 336.672 77.4019C 337.37 75.8636 338.626 75.0945 340.44 75.0945C 341.556 75.0945 342.463 75.514 343.161 76.3531C 343.998 77.1921 344.416 78.171 344.416 79.2897C 344.416 80.2686 344.207 81.2475 343.788 82.2264C 341.556 87.82 339.602 92.7844 337.928 97.1194C 336.254 101.315 334.649 105.23 333.114 108.866C 331.579 112.502 330.114 116.068 328.719 119.564C 327.324 122.92 325.858 126.486 324.324 130.262C 327.393 128.444 330.324 126.626 333.114 124.808C 335.905 122.99 338.696 120.962 341.486 118.725C 344.277 116.487 347.137 113.97 350.068 111.173C 353.137 108.237 356.486 104.811 360.114 100.895C 360.951 100.056 361.998 99.6366 363.253 99.6366C 364.649 99.6366 365.625 100.126 366.184 101.105C 366.742 101.944 367.021 102.853 367.021 103.832C 367.021 104.251 366.881 104.741 366.602 105.3C 366.463 105.859 366.253 106.279 365.974 106.559C 358.858 114.53 351.254 121.382 343.161 127.115C 335.207 132.849 327.184 138.093 319.091 142.847C 316.579 149.14 314.556 154.244 313.021 158.16C 311.487 162.075 310.231 165.222 309.254 167.599C 308.277 170.116 307.44 172.004 306.742 173.263C 306.184 174.661 305.696 175.92 305.277 177.038C 304.021 179.975 302.487 182.912 300.673 185.848C 298.998 188.785 297.115 191.442 295.022 193.819C 292.929 196.197 290.556 198.154 287.905 199.693C 285.254 201.231 282.394 202 279.324 202ZM 307.161 150.189C 303.812 152.426 300.394 154.734 296.905 157.111C 293.556 159.628 290.417 162.215 287.487 164.872C 283.998 167.949 280.719 171.445 277.65 175.36C 274.58 179.276 273.045 183.052 273.045 186.687C 273.045 188.645 273.603 190.323 274.719 191.722C 275.975 193.12 277.58 193.819 279.533 193.819C 283.022 193.819 286.231 192.071 289.161 188.575C 292.091 185.219 294.952 180.395 297.742 174.102C 299.277 170.885 300.742 167.319 302.138 163.404C 303.533 159.628 305.208 155.223 307.161 150.189Z"/>
<path id="path3_fill" d="M 401.464 138.862C 400.068 138.862 399.092 138.442 398.534 137.603C 397.836 136.764 397.487 135.925 397.487 135.086C 397.487 134.807 397.487 134.527 397.487 134.247C 397.348 133.967 397.417 133.618 397.696 133.198L 406.906 110.964C 409.278 104.811 411.719 98.7975 414.231 92.9242C 416.743 87.0509 419.185 81.1077 421.557 75.0945C 424.487 67.9626 427.417 60.9007 430.347 53.9086C 433.277 46.7767 435.859 40.3441 438.091 34.6106C 440.463 28.7373 442.347 23.9128 443.742 20.1371C 445.277 16.2215 446.045 13.8442 446.045 13.0052C 446.045 11.1873 445.277 9.9287 443.742 9.22949C 442.208 8.53029 440.254 8.18069 437.882 8.18069C 436.208 8.18069 434.045 8.46037 431.394 9.01973C 428.882 9.57909 426.44 10.3482 424.068 11.3271C 421.696 12.306 419.603 13.4946 417.789 14.893C 416.115 16.1516 415.278 17.55 415.278 19.0883C 415.278 20.207 414.789 21.116 413.812 21.8152C 412.975 22.3745 412.068 22.6542 411.092 22.6542C 409.975 22.6542 408.999 22.2347 408.161 21.3956C 407.464 20.5566 407.115 19.7175 407.115 18.8785C 407.115 16.0817 408.231 13.5646 410.464 11.3271C 412.836 8.94981 415.626 6.92212 418.836 5.24403C 422.184 3.56594 425.603 2.30737 429.091 1.46833C 432.58 0.489443 435.58 0 438.091 0C 442.417 0 446.184 1.04881 449.393 3.14642C 452.603 5.10419 454.207 8.32053 454.207 12.7954C 454.207 14.6134 453.789 16.7809 452.952 19.298C 451.556 22.9339 449.184 29.017 445.835 37.5472C 442.487 45.9377 438.44 55.8664 433.696 67.3333C 439.696 64.956 446.324 61.5299 453.579 57.055C 460.975 52.5801 468.231 47.6857 475.347 42.3718C 479.672 39.0156 483.928 35.6594 488.114 32.3032C 492.3 28.8072 496.137 25.451 499.625 22.2347C 503.253 19.0183 506.393 16.0817 509.044 13.4247C 511.695 10.6279 513.718 8.39045 515.114 6.71236C 515.951 5.59363 517.067 5.03427 518.463 5.03427C 519.997 5.03427 521.044 5.52371 521.602 6.5026C 522.3 7.34164 522.649 8.25061 522.649 9.22949C 522.649 10.2084 522.3 11.0474 521.602 11.7466C 520.067 13.7044 517.904 16.1516 515.114 19.0883C 512.323 21.8851 509.044 25.0315 505.277 28.5275C 501.649 31.8837 497.602 35.4496 493.137 39.2253C 488.672 42.8612 484.068 46.4271 479.323 49.9232C 469.556 57.1949 459.789 63.4178 450.021 68.5919C 454.068 70.5497 457.068 73.1367 459.021 76.3531C 460.975 79.4296 462.51 82.9955 463.626 87.0509C 464.603 91.8055 465.44 96.5601 466.137 101.315C 466.835 105.51 467.533 109.635 468.23 113.691C 469.068 117.606 470.324 121.382 471.998 125.018C 472.696 126.416 473.463 127.675 474.3 128.793C 475.277 129.912 476.463 130.471 477.858 130.471C 478.975 130.471 480.161 129.982 481.416 129.003C 482.812 128.024 483.928 127.185 484.765 126.486C 486.579 124.668 488.602 122.64 490.835 120.403C 493.207 118.026 495.509 115.648 497.742 113.271C 499.974 110.894 502.067 108.656 504.021 106.559C 505.974 104.321 507.649 102.433 509.044 100.895C 509.881 100.056 510.858 99.6366 511.974 99.6366C 513.37 99.6366 514.346 100.126 514.904 101.105C 515.602 101.944 515.951 102.853 515.951 103.832C 515.951 104.391 515.811 104.881 515.532 105.3C 515.393 105.72 515.183 106.069 514.904 106.349L 511.765 109.915C 510.23 111.593 508.556 113.411 506.742 115.369C 504.928 117.326 503.044 119.354 501.091 121.452C 499.277 123.409 497.393 125.367 495.439 127.325C 493.626 129.143 491.951 130.821 490.416 132.359C 488.881 133.898 486.998 135.296 484.765 136.555C 482.672 137.953 480.23 138.652 477.44 138.652C 474.23 138.652 471.579 137.533 469.486 135.296C 467.393 133.058 465.789 130.751 464.672 128.374C 463.138 124.878 461.812 120.473 460.696 115.159C 459.579 109.705 458.324 103.133 456.928 95.4413L 455.672 88.5192C 454.835 84.7435 453.161 81.5971 450.649 79.08C 448.277 76.5628 445.068 75.3043 441.021 75.3043C 438.789 75.3043 436.487 75.6539 434.115 76.3531C 431.882 77.0523 430.138 77.8214 428.882 78.6604L 405.231 136.345C 404.533 138.023 403.278 138.862 401.464 138.862Z"/>
<path id="path4_fill" d="M 520.847 138.652C 518.056 138.652 515.614 138.093 513.521 136.974C 511.568 135.855 509.963 134.387 508.707 132.569C 507.451 130.751 506.544 128.723 505.986 126.486C 505.289 124.249 504.94 121.941 504.94 119.564C 504.94 116.068 505.498 112.222 506.614 108.027C 507.73 103.692 509.475 99.3569 511.847 95.0218C 514.079 90.6867 516.87 86.5614 520.219 82.6459C 523.567 78.7304 527.474 75.3043 531.939 72.3676C 532.498 72.0879 532.986 71.8782 533.405 71.7383C 533.963 71.4586 534.381 71.3188 534.66 71.3188C 535.777 71.3188 536.753 71.7383 537.591 72.5774C 538.428 73.4164 538.846 74.3254 538.846 75.3043C 538.846 76.7027 538.218 77.8913 536.963 78.8702C 533.195 81.3873 529.846 84.3939 526.916 87.8899C 523.986 91.2461 521.474 94.812 519.381 98.5877C 517.288 102.224 515.684 105.859 514.568 109.495C 513.591 113.131 513.102 116.487 513.102 119.564C 513.102 122.361 513.73 124.878 514.986 127.115C 516.242 129.353 518.195 130.471 520.847 130.471C 524.056 130.471 527.265 129.353 530.474 127.115C 533.823 124.738 536.684 122.431 539.056 120.193C 534.591 115.998 532.358 109.775 532.358 101.524C 532.358 98.8674 532.777 95.721 533.614 92.0852C 534.451 88.4493 535.707 84.9533 537.381 81.5971C 539.056 78.2409 541.149 75.4441 543.66 73.2066C 546.172 70.8294 549.032 69.6407 552.242 69.6407C 554.474 69.6407 556.288 70.2001 557.683 71.3188C 559.079 72.4375 560.125 73.8359 560.823 75.514C 561.66 77.1921 562.218 79.01 562.497 80.9678C 562.776 82.7857 562.916 84.4638 562.916 86.0021C 562.916 91.8754 561.8 97.3991 559.567 102.573C 557.474 107.747 554.962 112.572 552.032 117.047L 552.66 117.047C 555.869 117.047 559.288 115.788 562.916 113.271C 566.683 110.614 571.009 106.489 575.892 100.895C 576.73 100.056 577.776 99.6366 579.032 99.6366C 580.427 99.6366 581.404 100.126 581.962 101.105C 582.52 101.944 582.799 102.853 582.799 103.832C 582.799 104.951 582.451 105.859 581.753 106.559C 577.288 111.453 572.613 115.788 567.73 119.564C 562.986 123.34 557.893 125.227 552.451 125.227C 550.079 125.227 548.056 124.948 546.381 124.388C 542.893 128.164 538.986 131.52 534.66 134.457C 530.335 137.254 525.73 138.652 520.847 138.652ZM 552.242 77.8214C 550.567 77.8214 548.963 78.7304 547.428 80.5483C 546.032 82.2264 544.777 84.324 543.66 86.8411C 542.684 89.2184 541.916 91.8055 541.358 94.6023C 540.8 97.2593 540.521 99.5666 540.521 101.524C 540.521 103.063 540.73 105.09 541.149 107.607C 541.707 110.125 542.753 112.152 544.288 113.691C 547.079 109.635 549.521 105.16 551.614 100.266C 553.707 95.3714 554.753 90.6867 554.753 86.2118C 554.753 85.6525 554.683 84.8833 554.544 83.9045C 554.544 82.9256 554.474 82.0166 554.335 81.1776C 554.195 80.1987 553.916 79.4296 553.497 78.8702C 553.218 78.171 552.8 77.8214 552.242 77.8214Z"/>
<path id="path5_fill" d="M 578.684 107.817C 577.428 107.817 576.451 107.468 575.754 106.768C 574.916 105.929 574.498 104.951 574.498 103.832C 574.498 102.713 574.916 101.734 575.754 100.895C 579.381 97.1194 582.451 93.5535 584.963 90.1973C 587.474 86.7013 589.777 83.2053 591.87 79.7092L 584.126 79.7092C 583.009 79.7092 582.033 79.2897 581.195 78.4507C 580.358 77.6116 579.94 76.6327 579.94 75.514C 579.94 74.3953 580.358 73.4863 581.195 72.7871C 582.033 71.9481 583.009 71.5286 584.126 71.5286L 596.265 71.5286L 599.404 64.8162C 601.358 59.6421 603.032 55.307 604.428 51.811C 605.962 48.315 607.218 45.5182 608.195 43.4206C 609.311 40.9034 610.148 38.9457 610.707 37.5472C 611.404 35.8692 612.66 35.0301 614.474 35.0301C 615.869 35.0301 616.846 35.4496 617.404 36.2887C 618.102 37.1277 618.451 38.0367 618.451 39.0156C 618.451 39.2953 618.451 39.6449 618.451 40.0644C 618.451 40.4839 618.311 40.9733 618.032 41.5327L 605.474 71.5286L 624.73 71.5286C 625.846 71.5286 626.823 71.9481 627.66 72.7871C 628.497 73.4863 628.916 74.3953 628.916 75.514C 628.916 76.6327 628.497 77.6116 627.66 78.4507C 626.823 79.2897 625.846 79.7092 624.73 79.7092L 602.335 79.7092C 601.079 82.7857 599.753 86.2118 598.358 89.9875C 597.102 93.7632 595.916 97.6089 594.8 101.524C 593.684 105.44 592.707 109.216 591.87 112.851C 591.172 116.348 590.823 119.424 590.823 122.081C 590.823 123.759 591.102 125.577 591.66 127.535C 592.218 129.493 593.335 130.471 595.009 130.471C 596.404 130.471 598.288 129.562 600.66 127.745C 603.172 125.927 605.893 123.619 608.823 120.822C 611.893 117.886 615.032 114.669 618.241 111.173C 621.59 107.677 624.73 104.251 627.66 100.895C 628.497 100.056 629.474 99.6366 630.59 99.6366C 631.706 99.6366 632.683 100.056 633.52 100.895C 634.358 101.734 634.776 102.643 634.776 103.622C 634.776 104.741 634.358 105.72 633.52 106.559C 631.706 108.796 629.195 111.733 625.986 115.369C 622.776 119.004 619.358 122.57 615.73 126.066C 612.102 129.423 608.404 132.359 604.637 134.876C 601.009 137.394 597.8 138.652 595.009 138.652C 592.916 138.652 591.102 138.163 589.567 137.184C 588.032 136.205 586.777 134.946 585.8 133.408C 584.823 131.87 584.056 130.122 583.498 128.164C 583.079 126.206 582.87 124.249 582.87 122.291C 582.87 119.494 583.149 116.348 583.707 112.851C 584.265 109.355 585.102 105.58 586.219 101.524L 581.614 106.559C 580.777 107.398 579.8 107.817 578.684 107.817Z"/>
<path id="path6_fill" d="M 672.256 138.862C 668.07 138.862 665 137.463 663.046 134.667C 661.093 131.87 660.116 128.723 660.116 125.227C 656.907 128.863 653.279 132.08 649.233 134.876C 645.326 137.533 641.07 138.862 636.465 138.862C 631.442 138.862 627.675 137.254 625.163 134.037C 622.651 130.681 621.396 126.556 621.396 121.661C 621.396 115.788 623 109.775 626.21 103.622C 629.279 97.3292 633.326 91.6656 638.349 86.6314C 643.372 81.5971 649.023 77.4718 655.302 74.2555C 661.721 71.0391 668.139 69.4309 674.558 69.4309C 677.907 69.4309 680.628 69.7805 682.721 70.4798C 684.953 71.0391 686.279 71.4586 686.697 71.7383C 687.255 72.018 687.814 72.4375 688.372 72.9969C 689.069 73.5563 689.418 74.1855 689.418 74.8847C 689.418 75.3043 689.348 75.7238 689.209 76.1433C 689.069 76.423 688.93 76.7027 688.79 76.9824C 688.372 78.1011 687.604 79.8491 686.488 82.2264C 685.511 84.4638 684.255 87.0509 682.721 89.9875C 681.325 92.7844 679.721 95.7909 677.907 99.0073C 676.093 102.224 674.279 105.37 672.465 108.447C 671.209 111.663 670.163 114.809 669.325 117.886C 668.628 120.822 668.279 123.27 668.279 125.227C 668.279 126.766 668.628 128.094 669.325 129.213C 670.023 130.192 671 130.681 672.256 130.681C 673.93 130.681 676.302 129.423 679.372 126.906C 682.581 124.249 685.86 121.242 689.209 117.886C 692.558 114.53 695.697 111.243 698.627 108.027C 701.558 104.671 703.651 102.294 704.906 100.895C 705.604 100.196 706.162 99.7764 706.581 99.6366C 706.999 99.4967 707.488 99.4268 708.046 99.4268C 709.162 99.4268 710.069 99.9162 710.767 100.895C 711.604 101.734 712.023 102.643 712.023 103.622C 712.023 104.741 711.604 105.72 710.767 106.559C 701.558 116.627 693.883 124.528 687.744 130.262C 681.604 135.995 676.442 138.862 672.256 138.862ZM 674.349 77.6116C 668.767 77.6116 663.256 79.08 657.814 82.0166C 652.512 84.8134 647.767 88.4493 643.581 92.9242C 639.395 97.2593 635.977 102.014 633.326 107.188C 630.814 112.362 629.558 117.256 629.558 121.871C 629.558 124.249 630.116 126.346 631.233 128.164C 632.349 129.842 634.023 130.681 636.256 130.681C 639.047 130.681 641.837 129.842 644.628 128.164C 647.419 126.346 650.07 124.109 652.581 121.452C 655.232 118.795 657.605 115.998 659.698 113.061C 661.93 109.985 663.744 107.258 665.139 104.881L 665.139 105.09C 667.232 99.7764 669.604 94.6722 672.256 89.7778C 674.907 84.8833 677.069 80.9678 678.744 78.0312C 678.046 77.8913 677.279 77.8214 676.442 77.8214C 675.744 77.6816 675.046 77.6116 674.349 77.6116Z"/>
<path id="path7_fill" d="M 711.21 140.54C 705.768 140.54 700.884 139.211 696.559 136.555C 692.094 133.898 688.326 130.541 685.257 126.486C 684.978 126.206 684.768 125.857 684.629 125.437C 684.35 125.018 684.21 124.388 684.21 123.549C 684.21 122.431 684.699 121.382 685.675 120.403C 689.164 117.047 692.652 113.621 696.14 110.125C 699.489 106.629 702.489 103.272 705.14 100.056C 708.768 95.721 712.326 91.1063 715.814 86.2118C 719.442 81.1776 722.652 76.4929 725.442 72.1578C 726 71.4586 726.768 70.5497 727.745 69.4309C 728.721 68.1724 729.977 67.5431 731.512 67.5431C 732.628 67.5431 733.535 68.0325 734.233 69.0114C 734.931 69.8505 735.279 70.7594 735.279 71.7383C 735.279 72.4375 734.931 73.2766 734.233 74.2555C 733.535 75.0945 732.838 76.0035 732.14 76.9824C 731.721 77.9612 731.442 79.2198 731.303 80.7581C 731.163 82.1565 731.093 83.7646 731.093 85.5826C 731.093 90.3371 731.303 94.882 731.721 99.217C 731.861 101.175 732 103.202 732.14 105.3C 732.279 107.258 732.349 109.216 732.349 111.173C 732.349 113.691 732.21 116.208 731.931 118.725C 731.791 121.102 731.372 123.409 730.675 125.647C 732.907 124.109 735.279 122.361 737.791 120.403C 740.303 118.305 742.744 116.208 745.116 114.11C 747.489 111.873 749.791 109.635 752.023 107.398C 754.256 105.16 756.279 102.993 758.093 100.895C 758.93 100.056 759.907 99.6366 761.023 99.6366C 762.419 99.6366 763.395 100.056 763.953 100.895C 764.651 101.734 765 102.643 765 103.622C 765 104.881 764.651 105.859 763.953 106.559C 760.605 110.334 756.837 114.25 752.651 118.305C 748.605 122.361 744.279 126.066 739.675 129.423C 735.07 132.639 730.326 135.296 725.442 137.394C 720.698 139.491 715.954 140.54 711.21 140.54ZM 710.163 106.559C 705.559 112.012 700.117 117.886 693.838 124.179C 696.35 126.836 699.001 128.863 701.791 130.262C 704.582 131.52 708.001 132.15 712.047 132.15C 716.791 132.15 720 130.192 721.675 126.276C 723.349 122.361 724.187 117.466 724.187 111.593C 724.187 109.216 724.117 106.908 723.977 104.671C 723.838 102.294 723.628 99.9862 723.349 97.7487C 723.349 97.1893 723.279 96.4202 723.14 95.4413C 723.14 94.3226 723.07 93.3437 722.931 92.5047C 722.931 91.6656 722.861 91.0363 722.721 90.6168C 722.721 90.1973 722.721 90.2672 722.721 90.8266C 721.047 93.2039 719.163 95.6511 717.07 98.1682C 714.977 100.685 712.675 103.482 710.163 106.559Z"/>
</defs>
</svg>
