<?xml version="1.0" encoding="utf-8"?>
<!-- Generator: Adobe Illustrator 16.0.0, SVG Export Plug-In . SVG Version: 6.00 Build 0)  -->
<!DOCTYPE svg PUBLIC "-//W3C//DTD SVG 1.1//EN" "http://www.w3.org/Graphics/SVG/1.1/DTD/svg11.dtd">
<svg width="196" height="109" xmlns="http://www.w3.org/2000/svg">
 <g>
  <title>background</title>
  <rect fill="none" id="canvas_background" height="111" width="198" y="-1" x="-1"/>
 </g>
 <g>
  <title>Layer 1</title>
  <g id="signature">
   <path id="svg_1" d="m24.31063,51.28914c-0.66652,0.6665 -0.66652,0.6665 -0.66652,0.6665c0,0 0,0 0,0c0.33326,0 1.01318,-0.64992 2.66606,-1.99954c2.01611,-1.64621 4.94112,-3.74202 7.99817,-5.99863c3.27283,-2.41589 7.30772,-5.03209 10.99748,-7.66492c3.31136,-2.36281 6.41923,-4.18996 8.6647,-5.66537c1.39258,-0.91501 1.99954,-1.33302 2.33279,-1.33302c0,0 0,0 0,0c-0.66652,0.66652 -1.83669,2.19691 -3.66583,4.6656c-2.58679,3.49124 -5.72709,7.61272 -9.66445,12.33051c-4.40211,5.27467 -8.68491,10.64786 -12.99703,15.99635c-4.01799,4.98367 -7.70303,9.63832 -10.66423,13.9968c-2.70103,3.97554 -4.99886,6.9984 -6.9984,9.99771c-1.33303,1.99954 -2.23753,3.40312 -2.99931,4.33235c-0.2988,0.36447 -0.33326,0.6665 -0.33326,0.6665c0,0 0.33326,-0.33325 1.33303,-1.33302c1.66628,-1.66629 3.96889,-4.024 6.9984,-7.66492c3.62991,-4.36249 8.24623,-9.4126 13.66354,-14.99657c6.23526,-6.42708 13.17449,-12.83928 20.66194,-19.32892c7.51282,-6.51163 14.83508,-12.20889 21.32846,-16.99611c5.20825,-3.83977 9.14331,-6.47842 11.33073,-8.33144c1.43845,-1.21854 1.99954,-1.99954 2.33281,-1.99954c0,0 0,0 0,0c-0.66652,0.33327 -1.87608,1.76352 -3.99908,4.33235c-3.15607,3.81885 -7.39037,8.61685 -11.99725,14.33005c-5.06393,6.27998 -10.28192,13.03165 -14.99658,19.66217c-4.28796,6.03043 -8.04495,11.45198 -10.33097,15.99635c-1.61298,3.20644 -2.49817,5.30138 -2.66605,6.66513c-0.08144,0.66153 0.00892,0.74309 0.33326,0.66652c1.4505,-0.34242 3.33257,-2.66606 6.66514,-5.99863c4.33235,-4.33234 9.74597,-9.57938 15.66309,-15.32983c5.7457,-5.58388 11.48997,-11.17703 17.32938,-16.66286c5.50662,-5.1732 10.70467,-9.61652 14.66331,-12.99702c2.69395,-2.30051 4.63814,-3.12823 4.99886,-3.99908c0.12753,-0.30789 -0.07913,-0.51285 -0.99977,0c-2.27383,1.26665 -5.34315,4.65369 -9.66446,8.66469c-5.01169,4.65181 -10.68053,10.02122 -15.66309,15.99634c-5.03712,6.04054 -8.98322,11.83022 -11.664,17.32938c-1.89841,3.89426 -2.81566,7.0699 -2.33279,8.66469c0.34819,1.15001 2.41803,1.66853 4.99886,0.99977c3.3214,-0.86066 7.07654,-4.2309 10.99748,-7.33167c4.08313,-3.22903 8.00847,-6.98915 10.99748,-10.33096c2.67531,-2.99107 4.04832,-5.64651 4.6656,-7.33167c0.36247,-0.98955 0.43541,-2.15244 0,-2.33279c-0.61578,-0.25507 -1.71646,-0.1138 -3.33257,0.66652c-2.41954,1.16824 -5.14479,3.51019 -7.99818,6.33188c-3.52267,3.48355 -6.27757,7.03708 -8.66467,10.33098c-1.95558,2.69846 -3.24144,4.30646 -2.99931,5.33211c0.10828,0.45868 1.41998,0.62714 2.99931,0c2.922,-1.16029 5.62413,-4.05147 8.99794,-6.66515c3.95175,-3.06142 7.72704,-5.92427 11.33073,-8.99794c3.05322,-2.60416 5.33212,-4.33234 6.66515,-5.66537c0.33325,-0.33325 0.31998,-0.35858 -0.33325,0c-1.70343,0.93509 -3.7453,2.5889 -6.33189,5.33212c-2.75301,2.91971 -5.44243,6.59721 -7.66492,10.33096c-1.75496,2.9483 -2.93295,5.35364 -2.66605,6.9984c0.16881,1.04024 2.01054,1.02505 4.33234,0c3.68372,-1.62634 8.09256,-4.52818 12.99702,-7.99817c5.44102,-3.84961 10.74329,-8.22993 16.32961,-12.66377c5.74861,-4.56264 10.63629,-9.02866 14.66331,-12.66377c2.97882,-2.68892 4.33234,-3.99908 4.6656,-4.66559c0,0 -1.33304,0.33325 -3.33258,1.66628c-2.99931,1.99954 -6.73914,5.25958 -10.33096,8.99794c-4.08488,4.25154 -7.92172,9.17906 -10.99748,14.66331c-2.55161,4.54964 -4.32909,8.26154 -4.6656,10.66423c-0.18489,1.32016 1.42757,2.11163 3.99908,1.33304c3.56606,-1.07971 7.8932,-4.47997 12.99702,-7.99817c5.55585,-3.82979 11.74451,-7.90314 17.66263,-12.99704c6.08292,-5.23575 12.07854,-10.57892 17.32938,-15.66309c4.74022,-4.58977 8.39076,-7.94739 10.66423,-10.66423c1.36943,-1.63649 1.99954,-2.66605 1.99954,-3.33257c0,0 -0.79776,-0.2632 -2.33281,0.66652c-2.62805,1.59169 -5.66536,5.33211 -9.99771,9.66446c-4.99886,4.99886 -10.53909,11.16115 -15.66309,17.66263c-4.86847,6.17726 -8.82535,12.14851 -10.33096,16.99611c-1.00806,3.24562 -0.17621,5.81825 1.99954,6.33188c2.91908,0.6891 7.4892,-0.72336 12.33051,-3.66582c5.5295,-3.36073 11.25067,-8.07463 16.66286,-13.66354c5.25601,-5.42764 11.08878,-10.48999 16.32961,-20.99521c1.88179,-3.77206 1.80159,-6.83321 0.99977,-8.33142c-0.88953,-1.66212 -3.67795,-1.93565 -6.66515,-1.66629c-3.71088,0.33461 -7.71631,2.58011 -11.664,4.99886c-4.72937,2.89769 -9.27409,6.74243 -14.66331,10.66423c-5.60712,4.08035 -11.21999,8.50854 -16.99611,11.99725c-5.23672,3.16292 -9.91881,5.57323 -13.66354,6.66515c-2.94965,0.86008 -5.5312,1.70059 -6.66515,0.99977c-0.6339,-0.39177 -0.64941,-1.71759 -0.33325,-2.66606c0.52693,-1.58078 2.01532,-2.64534 3.33257,-3.66582c1.6869,-1.30685 3.67851,-2.29591 5.66537,-2.99931c2.68411,-0.95024 5.97597,-1.7617 9.99771,-2.66606c4.97366,-1.11841 10.64972,-2.16541 17.32938,-2.66606c6.6548,-0.49879 13.01599,-0.45174 17.99588,-0.99977c4.35703,-0.47949 7.25943,-1.2606 8.99796,-2.66606c1.65944,-1.34152 1.99489,-3.77853 1.33302,-5.66536c-0.70633,-2.0136 -2.57008,-3.32645 -4.33235,-3.66583c-0.98174,-0.18907 -2.01842,-0.02748 -2.99931,0.66652c-1.36024,0.9624 -2.66605,2.33279 -3.66582,3.66582l-0.33327,0.33327l-0.33325,0.33325" stroke-miterlimit="10" stroke-width="5" stroke="#000000" fill="none"/>
  </g>
 </g>
</svg>
