<svg width="515" height="269" viewBox="0 0 515 269" version="1.1" xmlns="http://www.w3.org/2000/svg" xmlns:xlink="http://www.w3.org/1999/xlink" xmlns:figma="http://www.figma.com/figma/ns">
<title>Group</title>
<desc>Created using Figma</desc>
<g id="Canvas" transform="translate(276 182)" figma:type="canvas">
<g id="Group" style="mix-blend-mode:normal;" figma:type="frame">
<g id="amy kotas" style="mix-blend-mode:normal;" figma:type="vector">
<use xlink:href="#path0_fill" transform="translate(-276 -182)" fill="#111111" style="mix-blend-mode:normal;"/>
<use xlink:href="#path1_fill" transform="translate(-276 -182)" fill="#111111" style="mix-blend-mode:normal;"/>
<use xlink:href="#path2_fill" transform="translate(-276 -182)" fill="#111111" style="mix-blend-mode:normal;"/>
<use xlink:href="#path3_fill" transform="translate(-276 -182)" fill="#111111" style="mix-blend-mode:normal;"/>
<use xlink:href="#path4_fill" transform="translate(-276 -182)" fill="#111111" style="mix-blend-mode:normal;"/>
<use xlink:href="#path5_fill" transform="translate(-276 -182)" fill="#111111" style="mix-blend-mode:normal;"/>
<use xlink:href="#path6_fill" transform="translate(-276 -182)" fill="#111111" style="mix-blend-mode:normal;"/>
<use xlink:href="#path7_fill" transform="translate(-276 -182)" fill="#111111" style="mix-blend-mode:normal;"/>
</g>
</g>
</g>
<defs>
<path id="path0_fill" d="M 12.1805 143.235C 13.0632 143.059 13.7693 142.883 14.4754 142.531C 16.2407 141.475 18.006 140.595 19.4182 139.186C 21.007 137.602 22.7723 136.018 24.5376 134.433C 26.3028 132.497 28.4212 130.737 30.1865 128.8C 31.4222 127.744 32.6579 126.688 33.8936 125.807C 34.0701 125.631 34.2467 125.631 34.4232 125.631C 34.4232 125.983 34.5997 126.16 34.5997 126.336C 34.7762 127.216 34.4232 128.096 34.7762 128.8C 35.4824 131.089 36.365 133.377 38.1303 134.961C 40.7782 136.898 41.1313 137.074 43.9558 138.306C 45.0149 138.482 46.4272 138.482 47.6629 138.482C 52.6057 138.658 56.3128 136.546 60.0199 133.553C 60.373 133.377 60.726 133.025 61.0791 132.673C 61.9617 131.969 62.6679 131.089 63.5505 130.208C 65.3158 128.624 66.728 127.04 68.1403 125.103C 68.8464 124.223 69.376 123.343 69.9055 122.639C 70.6117 121.759 71.3178 121.054 71.8474 119.998C 72.0239 119.294 72.377 118.766 72.5535 118.238C 73.7892 115.949 75.2014 113.661 76.2606 111.372L 76.9667 109.788C 77.1432 109.436 77.3198 109.26 77.3198 108.908C 77.6728 107.851 77.6728 106.971 77.3198 106.267C 76.7902 105.563 75.9075 105.035 74.8484 105.035L 74.6718 105.035C 72.377 105.035 70.2586 106.795 69.376 108.908C 69.1994 109.436 69.1994 109.788 69.0229 110.14C 68.4933 111.02 67.9637 111.9 67.4341 112.957C 66.5515 114.365 65.8454 115.949 64.7862 117.358C 64.0801 118.59 63.1974 119.822 62.3148 120.878C 61.7852 121.759 61.0791 122.639 60.373 123.343L 58.0781 125.631C 56.3128 127.744 54.0179 129.152 51.5465 130.56L 51.1935 130.56C 50.1343 131.089 48.8986 131.617 47.6629 131.969C 46.4272 132.145 45.1915 131.793 44.1323 130.913L 43.0731 129.856C 42.5435 128.976 42.367 128.096 42.367 127.04C 42.367 124.047 42.7201 120.878 43.4262 117.886C 43.7792 116.301 44.3088 114.717 44.8384 113.309C 44.8384 112.957 44.8384 112.781 45.0149 112.605C 45.0149 111.548 45.0149 110.492 44.6619 109.436C 43.6027 107.851 42.0139 105.915 39.8956 105.563C 36.8946 105.035 36.8946 108.732 36.5415 110.844C 36.365 111.02 36.365 111.196 36.365 111.372L 36.0119 111.372C 35.1293 110.668 34.7762 109.612 34.0701 108.908C 33.1875 108.204 32.4814 107.323 32.1283 106.795C 30.5395 105.739 29.3038 105.035 28.0681 104.155L 25.0671 103.098C 23.8314 103.098 22.7723 103.098 21.8896 103.274C 18.8886 103.627 16.5937 104.859 14.6519 106.443C 13.0632 107.675 11.6509 108.908 10.4152 110.316L 9.35605 111.548C 7.94381 113.485 6.70811 115.421 5.4724 117.358C 4.76629 118.59 4.06017 119.646 3.53058 120.878L 1.41223 126.336C 0.706116 128.448 0 130.737 0 133.025C 0 135.49 0.706117 137.954 2.64794 139.891C 3.001 140.243 3.35405 140.595 3.53058 140.947C 5.11935 141.827 6.53158 142.531 7.94381 143.059C 9.53257 143.235 10.7683 143.411 12.1805 143.235ZM 10.5918 134.609C 9.88563 134.433 9.35605 134.433 9.17952 133.905C 8.64993 131.793 8.64993 131.089 9.17952 129.504C 10.5917 125.983 12.1805 122.463 14.2989 119.47L 14.8284 118.59C 16.0642 116.125 18.1825 114.365 20.3009 112.428C 20.8304 112.076 21.36 111.724 22.0661 111.372C 22.7723 110.844 23.6549 110.844 24.7141 111.02C 25.0671 111.372 25.4202 111.9 25.9498 112.252C 25.9498 112.605 26.1263 112.957 26.1263 113.309C 26.1263 114.541 26.3028 115.949 26.3028 117.358C 26.4794 118.238 27.5385 118.766 27.7151 119.822C 27.5385 119.998 27.5385 120.35 27.5385 120.35C 27.1855 120.878 26.8324 121.23 26.4794 121.582C 25.4202 122.815 24.1845 123.871 22.9488 124.927C 22.2427 125.631 21.7131 126.336 20.8304 126.688C 18.5356 128.272 16.5937 130.208 14.6519 132.145C 13.4162 133.201 12.004 134.081 10.5918 134.609Z"/>
<path id="path1_fill" d="M 148.454 140.595C 150.219 139.538 151.808 138.306 153.22 137.074C 156.751 133.905 159.929 130.737 162.93 127.216C 165.401 124.399 169.285 120.702 170.344 117.005C 171.403 115.069 172.639 113.133 173.521 111.196C 173.698 110.668 174.051 110.14 174.227 109.612C 174.404 109.436 174.58 109.084 174.58 108.908C 175.463 106.619 174.227 104.859 172.109 104.859C 169.814 104.859 167.343 106.619 166.637 108.908L 166.107 109.964C 165.754 110.844 165.224 111.9 164.695 112.781L 163.812 114.365L 162.047 117.182L 159.575 120.878C 156.221 125.455 152.338 129.68 147.925 133.377C 146.689 134.257 145.63 135.137 144.217 135.666C 137.333 138.306 139.628 130.032 139.628 126.336C 139.628 124.751 139.804 123.167 139.981 121.582L 139.981 121.054C 139.981 121.054 139.804 120.878 139.804 120.702L 139.804 118.766C 139.628 118.062 139.804 117.534 139.628 116.829L 138.568 109.788C 136.803 107.499 136.274 106.795 134.861 106.267C 134.508 106.091 133.979 105.915 133.273 105.739C 132.92 105.563 132.743 105.563 132.39 105.563C 131.684 105.387 130.625 105.387 129.742 105.387C 128.683 105.387 127.977 105.739 127.271 106.619C 126.741 107.147 126.388 108.027 126.035 108.732C 125.858 109.26 125.858 109.788 125.682 110.316C 124.446 111.9 123.21 113.661 121.975 115.069L 118.268 119.118C 116.679 120.702 114.914 122.111 113.325 123.695C 111.736 125.279 109.971 126.688 108.382 128.272C 108.029 128.8 107.499 128.976 106.793 129.328C 106.793 129.504 106.44 129.328 106.264 129.328C 106.087 129.152 105.911 128.976 105.911 128.8C 106.087 127.04 105.911 125.103 106.264 123.167C 106.617 121.054 106.617 118.942 106.97 116.829C 106.97 115.773 107.146 114.717 107.146 114.013C 107.146 112.781 106.97 111.724 106.793 110.668C 106.793 109.612 106.264 108.556 105.558 107.851C 105.204 107.147 104.498 106.795 104.322 106.443C 101.144 104.683 98.1433 105.035 94.7893 106.443L 89.4934 109.964C 86.1393 112.428 82.9618 114.893 80.1373 117.71C 79.6078 118.062 79.2547 118.414 78.9016 118.766C 77.8425 119.47 76.9598 120.35 76.0772 121.406L 72.8997 124.751C 72.7231 124.927 72.3701 125.103 72.1935 124.927C 72.017 124.927 72.017 124.751 72.017 124.399C 72.7231 122.287 73.4292 120.174 74.3119 118.238C 75.9006 114.717 77.1363 111.02 79.6078 108.027C 79.6078 107.323 79.7843 106.795 79.7843 106.091C 79.7843 105.739 79.6078 105.387 79.4312 105.035C 78.7251 103.803 77.6659 103.098 76.7833 102.394C 76.0772 102.042 75.5476 101.866 74.8415 101.69C 74.1354 101.69 73.4292 101.866 72.7231 102.042C 70.6048 102.57 69.5456 106.443 68.8395 108.38C 67.6038 111.02 66.7211 113.837 65.8385 116.653C 65.4854 118.062 64.9558 119.47 64.4262 120.878C 63.014 125.455 60.8957 130.032 61.2487 134.785C 61.4253 135.842 61.9548 136.898 62.8375 137.778C 63.8967 138.482 64.9558 139.186 66.1915 139.538C 66.7211 139.362 67.2507 139.362 67.7803 139.186C 68.6629 139.538 69.5456 139.891 70.4282 140.067C 71.4874 140.419 72.3701 140.243 73.0762 139.538C 73.7823 139.01 74.3119 138.306 74.6649 137.602C 76.0772 134.081 78.1955 131.089 80.8435 128.272C 81.373 127.568 82.2557 127.04 82.7853 126.16C 85.2567 123.519 87.9046 121.054 90.9056 118.766C 93.024 117.005 95.3188 115.597 97.6137 114.013C 98.1433 114.189 98.3199 114.717 98.3199 115.245C 98.3199 115.949 98.3199 116.653 98.1433 117.358C 97.9668 118.238 98.3199 119.118 98.1433 119.822C 97.7903 122.111 97.6137 124.575 97.6137 126.864C 97.6137 128.448 97.4372 130.032 97.7903 131.441C 98.1433 132.673 98.6729 133.729 99.5556 134.609L 102.733 137.426C 103.792 138.306 105.204 138.658 106.617 138.834L 109.088 138.306C 111.383 136.898 113.678 135.137 115.62 133.201C 117.032 131.793 118.621 130.56 120.033 128.976C 121.798 127.216 123.74 125.455 125.329 123.519C 126.918 121.582 128.859 119.822 130.448 117.71C 130.625 117.534 130.978 117.534 131.154 117.71C 131.331 117.886 131.331 117.886 131.331 118.062L 131.331 119.822C 131.154 121.054 131.154 122.463 131.154 123.871C 131.154 124.047 131.154 124.223 131.331 124.399C 131.154 124.927 131.154 125.631 130.978 126.16C 130.801 126.864 130.801 127.568 130.801 128.096C 130.625 128.976 130.625 129.856 130.448 130.56C 129.919 132.497 130.095 134.433 129.742 136.37C 129.742 137.778 129.919 139.01 130.801 140.243C 135.214 144.468 143.688 143.235 148.454 140.595Z"/>
<path id="path2_fill" d="M 109.226 268.927C 111.344 268.751 113.286 268.399 115.405 268.223C 115.581 268.223 115.934 268.047 116.287 268.047C 119.288 266.991 122.289 266.11 125.114 264.702C 128.115 263.294 130.939 261.886 133.587 259.773C 137.118 257.132 140.648 254.492 143.826 251.323C 145.415 249.563 147.18 247.802 148.945 246.042L 149.828 245.162C 151.063 243.577 152.476 241.993 153.711 240.585C 155.124 239 156.183 237.416 157.419 235.832C 158.125 234.776 158.654 233.719 159.537 232.839C 160.773 231.255 161.832 229.67 162.891 227.91L 168.716 218.932C 170.305 216.467 171.717 214.003 173.306 211.362L 173.836 210.13L 176.484 205.201C 178.072 202.384 179.485 199.392 180.897 196.399C 181.426 194.815 182.133 193.406 182.662 191.822C 184.427 187.773 186.193 183.724 187.605 179.675C 188.135 178.267 188.664 176.859 189.37 175.45C 189.547 174.922 190.076 174.394 190.783 174.042C 193.254 173.514 195.902 172.986 198.55 172.634C 200.492 172.458 202.433 172.282 204.375 171.93C 206.141 171.754 207.729 171.93 209.495 171.402C 210.024 171.225 210.554 171.402 211.083 171.402C 217.262 171.225 223.617 171.225 229.795 171.225C 230.502 171.402 231.031 171.225 231.737 171.402C 234.032 171.93 236.504 172.106 238.798 172.458C 241.093 172.81 243.388 173.338 245.507 174.218C 248.861 178.091 249.39 178.443 253.45 179.323C 253.98 179.147 254.686 178.795 255.392 178.619C 256.275 177.739 256.981 176.859 257.157 175.802C 256.628 173.338 256.628 173.338 255.392 171.578C 254.156 170.345 252.744 169.817 251.332 169.289C 247.448 167.705 243.565 166.296 239.328 166.12L 237.563 165.944C 235.621 165.592 233.503 165.416 231.561 165.416L 228.03 165.416C 226.971 165.416 225.735 165.24 224.676 165.24C 223.264 165.24 222.028 165.416 220.792 165.416C 217.791 165.416 214.614 165.416 211.613 165.592L 210.024 165.592C 208.612 166.12 207.2 165.944 205.787 166.12C 204.905 166.12 204.199 166.12 203.316 166.296C 202.257 166.648 201.198 166.648 200.139 166.825C 198.903 166.825 197.844 166.825 196.608 167.177C 195.372 167.529 194.313 167.529 193.077 167.353L 192.724 167.001C 192.724 166.648 192.724 166.296 192.901 165.944C 193.43 164.008 193.96 162.071 194.666 160.135C 195.725 157.318 196.608 154.502 197.491 151.685L 199.609 144.292C 199.786 143.411 200.139 142.707 200.315 141.827C 200.668 139.538 201.551 137.426 201.727 135.137C 201.904 134.961 201.904 134.609 201.904 134.257C 202.963 131.089 203.669 128.096 204.199 124.927C 204.199 124.575 204.199 124.223 204.375 123.871C 204.905 122.111 205.081 120.35 205.434 118.59L 205.787 118.062C 206.847 116.301 207.2 114.541 207.376 112.781L 207.376 110.492C 207.906 108.027 207.553 107.675 205.964 106.267C 205.787 106.091 205.434 105.915 205.081 105.563L 202.786 104.859C 201.727 104.683 200.845 105.035 200.139 105.387C 198.373 106.795 196.608 108.38 195.549 110.492C 195.372 111.548 194.666 112.781 193.784 113.837C 193.077 114.717 192.195 115.597 191.489 116.653C 190.959 117.005 190.606 117.534 190.076 118.062C 188.311 120.174 186.369 122.287 184.427 124.223L 183.192 125.279C 182.486 126.336 181.603 127.216 180.72 127.92L 173.659 134.257L 171.717 135.842C 170.658 136.722 169.599 137.25 168.363 137.602C 167.834 137.778 167.128 137.426 166.775 137.074C 166.421 136.546 166.245 136.194 166.245 135.666C 166.245 133.201 166.245 130.737 167.304 128.448C 167.834 127.392 168.01 126.16 168.363 125.103L 168.893 123.871C 170.305 121.23 171.188 118.59 172.423 116.125C 173.659 113.309 175.071 110.668 176.837 108.204C 179.661 106.091 179.661 106.091 180.897 103.627C 180.897 103.274 181.073 103.098 181.073 102.746C 181.073 101.514 180.72 100.458 179.838 99.5776C 178.955 98.6974 178.072 97.9933 176.66 97.8172C 175.424 97.6412 174.012 98.1693 172.777 98.5214C 172.247 99.0495 171.717 99.4016 171.188 99.7537C 170.835 100.458 170.482 100.986 170.305 101.69C 169.952 103.45 169.069 105.035 168.01 106.795C 167.128 108.38 166.245 109.964 165.539 111.724C 163.42 116.477 160.773 121.582 159.184 126.688C 157.772 131.793 157.242 136.898 159.537 141.475C 160.066 142.003 160.773 142.355 161.126 142.883C 162.185 143.939 163.244 144.644 164.303 145.172L 167.657 145.7C 168.187 145.524 168.54 145.524 168.893 145.348C 170.835 145.172 172.6 144.468 174.189 143.411C 175.954 142.179 177.719 141.123 179.132 139.538C 179.308 139.538 179.308 139.538 179.485 139.362C 181.25 137.25 183.545 135.314 185.663 133.377C 187.252 131.793 188.664 130.384 190.076 128.8C 191.312 127.216 192.901 125.807 194.313 124.399C 194.49 124.223 194.843 124.047 195.019 124.047C 195.372 124.399 195.372 124.751 195.196 125.279C 194.666 128.096 194.666 131.089 193.607 134.081C 193.43 134.609 193.43 135.137 193.254 135.666C 193.254 136.194 193.254 136.722 193.077 137.25C 192.018 139.714 191.842 142.179 191.136 144.644C 190.783 146.228 190.429 147.812 189.9 149.397L 189.37 150.981C 188.664 153.093 187.958 155.206 187.428 157.494C 186.369 161.015 184.957 164.536 183.721 168.233L 183.192 169.465C 182.662 169.465 182.309 169.817 181.956 169.817L 175.954 171.402L 168.893 173.162L 167.128 173.69C 166.245 174.218 165.186 174.394 164.303 174.57C 163.597 174.746 162.891 175.098 162.185 175.274C 158.654 176.683 155.124 177.739 151.593 178.795C 150.181 179.323 148.592 179.851 147.356 180.556C 146.297 180.908 145.238 181.612 144.179 181.788C 141.354 182.668 138.706 184.076 136.058 185.485C 133.411 186.893 130.41 187.949 127.938 189.71C 127.762 189.71 127.762 189.886 127.585 189.886C 124.408 191.47 121.23 193.406 118.052 195.343C 117.699 195.519 117.17 195.871 116.817 196.223C 115.758 197.279 114.522 197.983 113.286 198.688C 111.168 199.744 109.403 200.976 107.637 202.384C 107.108 202.912 106.578 203.265 106.049 203.617L 101.282 207.313C 99.5169 208.722 97.9282 210.482 96.1629 211.89L 95.6333 212.419C 94.7507 213.299 93.868 214.179 93.1619 215.059C 92.4558 215.587 91.7497 216.291 91.2201 216.996C 88.3956 219.812 86.2773 223.157 83.9824 226.502L 83.4528 227.734C 83.0997 228.262 82.7467 228.966 82.3936 229.67C 81.1579 231.607 80.4518 233.543 79.7457 235.656C 78.51 239.529 78.3334 243.225 79.0396 246.922C 79.2161 248.507 79.5691 250.267 79.9222 251.851C 80.9814 255.196 82.7467 258.189 85.0415 260.653L 86.6303 262.062C 87.6895 263.294 88.9252 264.174 90.3374 265.054C 90.867 265.23 91.2201 265.582 91.7496 265.758C 94.5741 267.519 97.9282 268.399 101.282 268.751C 103.93 268.927 106.578 269.103 109.226 268.927ZM 104.107 263.118C 101.282 263.118 98.8108 262.414 96.3394 261.181C 94.0445 260.301 92.2792 258.717 90.867 256.604C 89.6313 255.02 88.5721 253.26 87.866 251.323C 87.513 250.267 87.1599 249.387 86.4538 247.978C 85.7477 244.986 86.2772 241.817 86.6303 238.648C 86.8068 237.064 87.513 235.48 88.0425 234.071C 88.9252 231.959 89.8078 230.022 91.0435 228.262C 92.2792 226.678 93.3384 224.917 94.5741 223.333C 95.1037 222.629 95.8098 221.749 96.5159 221.044C 98.9873 218.052 101.812 215.235 104.813 212.419C 108.696 209.25 112.58 206.081 116.817 203.265C 118.759 201.856 121.054 200.448 123.172 199.216C 124.761 198.335 126.173 197.455 127.762 196.399C 129.527 195.343 131.469 194.463 133.234 193.406C 135.529 192.174 137.647 190.942 140.119 190.062C 144.002 188.301 148.062 186.365 152.123 184.78C 156.712 183.196 161.302 181.612 165.715 180.203C 170.129 178.795 174.365 177.739 178.602 176.507L 179.661 176.507C 179.838 176.331 180.191 176.683 180.191 177.035C 180.191 177.387 180.191 177.739 180.014 177.915L 178.955 181.084C 177.366 184.604 175.778 188.301 174.365 191.822C 173.836 192.878 173.306 193.758 173.13 194.991C 173.13 195.167 172.953 195.519 172.777 195.871C 171.011 199.392 169.422 202.912 167.481 206.433C 165.539 209.778 163.774 213.123 161.655 216.291C 160.243 218.58 158.831 220.692 157.595 222.805C 156.889 224.213 156.006 225.445 154.947 226.678C 154.594 227.382 154.064 227.91 153.711 228.614C 152.299 230.727 150.887 232.839 149.122 234.776C 148.062 235.832 147.356 237.24 146.121 238.296C 144.355 241.113 141.884 243.401 139.589 245.866C 138.177 247.274 136.765 248.683 135.176 249.915C 134.117 250.619 133.057 251.323 132.351 252.203L 128.115 255.372C 127.762 255.724 127.409 255.9 127.055 256.076C 122.466 259.421 117.346 261.533 112.051 262.942C 109.403 263.294 106.755 263.294 104.107 263.118Z"/>
<path id="path3_fill" d="M 289.334 162.776C 291.099 162.776 292.159 161.367 291.805 160.135C 291.805 159.607 291.629 159.255 291.629 158.903C 291.276 158.375 290.746 158.023 290.393 157.67C 289.511 157.142 288.451 156.966 287.745 156.262C 286.51 154.15 286.51 154.15 286.333 152.565C 285.98 150.629 286.157 148.869 286.157 146.932C 286.157 146.756 286.333 146.58 286.333 146.404C 286.863 146.052 287.569 145.7 288.098 145.172C 288.275 144.82 288.451 144.292 288.451 143.939C 288.275 142.707 287.922 141.827 287.569 140.771L 288.628 135.314C 288.804 134.433 288.981 133.729 289.334 133.025C 289.511 132.497 289.864 132.145 290.746 132.321C 291.805 132.849 293.394 133.377 294.806 134.081C 294.983 134.257 295.336 134.433 295.689 134.609C 296.042 135.314 296.572 136.194 297.101 136.898C 297.631 137.602 298.161 138.306 298.867 139.01C 299.043 139.186 299.22 139.538 299.396 139.891C 302.397 143.587 305.928 146.58 310.165 148.692C 311.047 149.045 311.753 149.397 312.636 149.925C 313.695 150.277 314.931 150.453 315.99 150.805C 322.698 153.093 329.583 148.34 333.996 143.763C 336.997 140.771 339.645 137.426 341.94 133.905L 348.648 124.927C 349.177 124.047 349.707 123.167 350.237 122.463C 350.943 121.582 351.825 120.878 352.178 119.822C 353.414 116.829 355.356 114.189 356.768 111.196C 356.945 110.668 357.121 110.14 357.474 109.612C 357.651 109.436 357.651 109.084 357.827 108.908C 358.533 106.619 357.474 104.859 355.179 104.859C 353.061 104.859 350.59 106.619 349.884 108.908L 349.354 109.964C 348.824 110.844 348.295 111.9 347.942 112.781L 345.823 116.301C 345.647 116.653 345.47 116.829 345.117 117.182L 342.822 120.878C 337.703 127.744 333.113 134.785 326.582 140.595C 321.462 145.172 314.225 146.932 309.105 141.299C 306.987 139.01 305.222 136.546 303.809 133.905C 303.456 133.201 303.456 132.497 303.986 132.145C 304.339 131.617 304.692 131.441 305.045 131.089C 305.928 130.56 306.81 129.856 307.693 129.152C 309.811 127.216 312.283 125.455 313.695 122.991C 313.872 122.815 313.872 122.815 313.872 122.639L 314.401 122.111C 315.813 120.526 316.873 118.59 317.755 116.477C 318.638 114.717 319.344 112.957 319.344 111.02C 319.521 109.612 319.521 108.38 319.697 107.147L 319.167 105.563C 318.991 104.859 318.814 104.331 318.814 103.803C 318.285 101.866 317.402 99.9297 316.166 98.1693C 314.401 97.1131 312.989 95.5287 310.518 95.0006C 310.518 95.0006 309.988 95.0006 309.635 94.8246C 306.987 94.4725 304.869 95.1766 302.927 96.4089C 301.338 97.4652 299.926 98.5214 298.867 99.7537C 296.925 101.866 294.63 103.627 293.041 105.915L 291.982 106.795C 291.805 106.267 291.629 105.915 291.805 105.739C 292.335 102.922 293.041 100.106 293.747 97.2891C 294.806 93.7683 295.689 90.2476 296.748 86.7268C 297.101 85.6706 297.278 84.4383 297.631 83.206C 298.867 79.6852 299.926 76.1645 300.985 72.6437C 301.162 71.9395 301.515 71.4114 301.691 70.7072C 302.397 67.1865 303.456 63.8417 304.516 60.497C 305.751 57.5043 306.634 54.3356 307.693 51.1669C 308.752 48.1743 309.635 44.8295 310.871 41.8369C 311.753 39.1963 312.636 36.5557 313.695 33.9151C 315.637 28.6339 317.402 23.1767 319.167 17.8956C 319.697 15.9591 320.58 14.3748 320.933 12.4384C 321.639 10.854 322.168 9.09362 323.581 7.86134C 324.287 7.33323 324.64 6.45303 324.463 5.22076L 323.051 2.75622C 322.522 2.05206 321.815 1.52394 320.933 0.995826L 319.167 0.291671C 318.285 -0.0604066 317.402 -0.0604073 316.52 0.115632C 315.99 0.115632 315.637 0.467711 315.284 0.467711C 314.401 1.34791 313.872 2.2281 313.519 3.28433C 313.342 4.16453 312.989 5.04472 312.812 5.92492C 311.753 8.38946 311.047 10.854 310.341 13.3186C 310.164 14.3748 309.811 15.255 309.458 16.3112C 308.752 18.2476 308.046 20.3601 307.517 22.4726C 306.987 24.585 306.281 26.5215 305.575 28.4579C 305.222 30.0423 304.869 31.6266 304.339 33.211L 301.162 42.8931C 300.985 43.4212 300.632 43.9493 300.632 44.4774C 300.102 46.766 299.573 49.0545 298.867 51.1669C 298.337 52.9273 297.807 54.5117 297.454 56.096C 296.925 58.2085 296.042 60.1449 295.336 62.0813C 294.983 62.9615 294.63 63.8417 294.453 64.7219C 294.277 65.6021 293.924 66.4823 293.747 67.5385C 293.571 69.827 292.865 71.9395 292.159 74.052C 291.805 75.2843 291.099 76.5165 290.746 77.9248C 290.217 79.3332 289.864 80.7415 289.511 82.3258C 289.334 82.8539 288.981 83.5581 288.804 84.2622C 288.804 84.7904 288.628 85.1424 288.451 85.6706L 287.922 86.7268C 287.922 88.1351 287.216 89.3674 286.863 90.2476C 286.686 91.1278 286.863 91.8319 286.51 92.36C 285.803 93.7683 285.627 95.5287 284.921 97.1131C 284.921 97.2891 284.744 97.6412 284.744 97.9933C 284.921 99.0495 284.568 100.106 284.215 100.986C 283.862 102.394 283.509 103.803 283.332 105.387C 283.156 105.739 283.156 106.267 282.979 106.619C 282.626 108.556 281.92 110.492 281.567 112.428C 281.39 113.133 281.39 113.837 281.214 114.541L 280.684 116.829C 280.331 117.534 280.331 118.238 280.331 118.942C 280.155 120.702 279.978 122.463 279.448 124.047C 278.919 125.983 278.919 127.92 278.566 129.856C 278.036 131.617 278.036 133.553 278.036 135.49C 278.036 135.842 278.036 136.37 277.86 136.722C 277.507 137.954 277.86 139.362 277.86 140.595C 277.154 144.115 277.154 147.636 277.683 151.157C 277.86 153.446 278.389 155.382 279.801 157.67C 280.155 158.023 280.684 158.551 281.214 159.255C 282.096 160.311 283.156 160.839 284.215 161.367C 285.274 161.719 286.157 161.895 287.039 162.247C 287.922 162.6 288.628 162.6 289.334 162.776ZM 298.16 123.343L 295.866 122.815C 295.336 122.639 294.63 122.991 293.924 122.639C 293.924 122.463 293.924 122.463 293.747 122.287C 293.747 122.111 293.747 121.759 293.924 121.406C 294.806 119.47 295.866 117.358 297.278 115.773C 297.631 115.421 297.807 115.069 297.984 114.717C 300.102 111.548 302.574 108.732 305.222 105.915C 305.928 105.211 306.81 104.507 307.693 103.803L 308.929 103.274C 309.282 103.098 309.635 103.274 309.811 103.274C 309.988 103.627 310.341 103.803 310.341 104.155C 310.694 105.915 310.518 107.499 310.165 109.084L 309.635 110.844C 309.458 112.605 308.399 114.189 307.517 115.597C 306.104 117.71 304.339 119.646 302.574 121.406L 302.044 122.111C 301.515 122.463 300.808 122.815 300.279 123.343L 298.16 123.343Z"/>
<path id="path4_fill" d="M 356.033 150.453C 356.386 150.277 356.916 150.277 357.092 150.101C 360.623 148.692 363.447 146.404 365.566 143.411C 367.684 140.771 369.626 137.778 371.568 134.961C 372.45 133.377 373.333 131.969 374.039 130.384C 374.392 130.032 374.745 129.68 375.275 129.328C 377.04 128.8 379.688 129.504 381.453 129.504C 384.101 129.328 386.749 128.8 389.221 128.096C 390.28 127.92 391.339 127.568 392.398 127.216C 395.752 125.807 399.106 124.047 401.754 121.406C 404.226 118.942 405.991 115.773 407.58 112.605L 408.109 111.372L 408.992 109.788C 408.992 109.436 409.168 109.26 409.345 108.908C 410.051 106.795 408.815 105.035 406.697 105.035C 404.579 105.035 402.107 106.795 401.225 108.908L 401.225 109.26C 401.048 109.612 400.872 109.788 400.872 110.14C 400.342 111.02 399.812 111.9 399.283 112.957C 398.4 114.717 397.341 116.829 395.752 118.238C 393.987 119.646 391.515 120.35 389.397 121.054C 387.985 121.582 386.573 122.111 385.16 122.287C 382.689 122.639 380.041 122.111 377.57 121.406C 378.982 117.71 380.041 113.837 381.1 109.964C 381.453 108.027 381.63 106.267 381.63 104.331C 381.63 103.098 381.277 101.866 380.747 100.634C 380.571 100.106 380.218 99.7537 379.865 99.4016C 378.805 98.1693 377.746 97.1131 376.687 96.0568C 376.157 95.8808 375.804 95.8808 375.628 95.7048C 374.392 95.0006 373.156 95.0006 371.921 95.0006C 370.155 95.1767 368.92 95.8808 367.861 97.2891C 366.272 99.5776 364.683 102.042 363.447 104.683C 362.388 106.971 361.682 109.26 361.859 111.9L 361.859 114.013C 362.212 116.829 363.094 118.942 364.153 121.054C 365.036 122.463 366.272 123.695 366.978 125.279C 367.508 126.512 364.507 131.265 363.977 132.321C 362.565 134.961 360.799 137.25 359.034 139.538C 358.151 140.419 357.445 141.299 356.386 141.827C 355.327 142.355 353.915 142.531 353.032 141.827C 350.384 140.243 351.09 134.257 351.267 131.617C 351.62 124.399 354.621 118.59 358.328 112.605C 359.034 111.548 359.564 110.492 359.74 109.26C 359.917 107.675 359.211 106.091 357.798 105.211C 356.563 104.331 354.797 104.155 353.385 104.859C 352.149 105.387 351.267 106.443 350.384 107.675C 348.972 109.612 347.56 111.9 346.854 114.189C 345.971 116.653 345.265 119.118 344.382 121.582C 343.323 125.103 342.617 128.8 342.44 132.497C 342.264 139.362 344.029 147.636 351.443 150.277C 352.856 150.805 354.444 150.981 356.033 150.453ZM 370.332 116.301L 370.155 115.597C 370.155 114.365 370.155 112.957 370.332 111.548C 370.509 110.492 370.862 109.26 371.391 108.38C 372.097 107.147 372.627 106.091 373.333 105.035C 373.333 104.859 373.686 105.035 373.863 104.859C 374.216 105.739 373.863 106.619 373.686 107.323C 373.156 110.14 372.274 112.781 371.391 115.597L 370.862 116.301L 370.332 116.301Z"/>
<path id="path5_fill" d="M 407.751 164.888C 408.457 164.712 408.986 164.36 408.986 163.304L 406.515 159.607C 404.926 156.438 404.397 152.917 404.22 149.397C 404.044 146.228 403.69 143.059 404.22 139.891C 404.22 137.778 404.573 135.666 404.926 133.377L 405.456 129.68C 405.809 127.392 406.162 125.279 406.691 122.991C 407.221 120.526 407.751 118.062 408.457 115.773C 408.986 113.309 409.692 110.844 410.399 108.556C 411.105 105.387 412.164 102.218 413.223 99.0495C 414.459 94.8246 416.048 90.5996 417.636 86.5507C 419.931 80.9175 422.226 75.2843 424.874 69.827L 425.404 68.7708C 425.933 68.7708 426.286 68.5948 426.816 68.5948C 427.522 68.4187 428.405 68.4187 429.287 68.4187C 430.17 68.4187 430.876 68.2427 431.759 68.4187C 432.641 68.4187 433.347 68.2427 434.23 68.0667L 444.998 68.0667C 447.293 68.5948 449.588 68.4187 451.706 68.5948C 452.413 68.5948 453.295 68.5948 454.001 68.7708C 455.237 69.1229 456.473 69.1229 457.708 69.1229C 461.592 69.1229 465.476 70.0031 469.183 70.0031L 469.536 70.0031C 470.772 70.1791 472.007 70.5312 473.596 70.7072L 476.067 71.7635L 478.186 71.7635C 478.715 71.7635 479.068 71.5874 479.245 71.4114C 480.128 70.3552 480.304 69.1229 479.775 67.8906C 478.539 65.9542 477.303 64.1938 475.361 62.9615C 473.773 62.6095 472.007 62.2574 470.419 62.2574C 468.83 62.2574 467.241 62.2574 465.652 62.0813C 465.123 62.0813 464.593 62.0813 464.063 61.9053C 462.651 61.7293 461.416 61.7293 460.18 61.7293C 458.768 61.5532 457.355 61.5532 456.12 61.3772C 454.531 61.2011 453.119 61.0251 451.53 61.0251C 449.765 61.0251 447.823 60.8491 445.881 60.8491C 444.469 60.8491 442.88 60.8491 441.644 60.497C 440.585 60.497 439.526 60.8491 438.643 60.8491C 437.584 60.8491 436.525 60.497 435.466 60.673C 434.053 60.3209 432.465 60.497 431.052 60.497C 430.699 60.497 430.523 60.3209 430.17 60.1449C 430.17 58.9126 430.876 58.2085 431.406 57.3283C 434.936 51.519 438.29 45.7097 441.997 40.0765C 443.233 38.14 444.292 36.2036 445.528 34.4432L 451 26.5215L 452.766 24.409C 453.119 24.0569 453.472 23.8809 454.001 23.5288C 454.354 23.0007 454.531 22.4726 454.531 21.7684C 454.531 21.4163 454.531 20.8882 454.354 20.7122C 452.413 17.8956 452.059 17.7195 448.176 15.9591L 446.587 15.9591C 446.411 15.9591 446.234 16.1352 446.057 16.1352C 445.351 16.8393 444.645 17.5435 444.116 18.4237C 443.763 18.9518 443.586 19.3039 443.233 19.656C 441.821 21.0643 440.762 22.6486 438.996 23.7048L 438.114 24.585C 437.584 25.2892 437.054 26.1694 437.054 27.0496C 437.408 27.5777 437.761 27.9298 437.584 28.81C 436.525 30.7464 435.289 32.8589 434.23 34.9713C 432.641 37.788 430.699 40.0765 429.64 43.0691C 428.228 44.8295 427.345 46.942 426.11 48.8784C 425.05 50.8148 423.991 52.7513 422.756 54.6877C 422.049 55.7439 421.52 56.8002 420.99 57.8564C 420.637 58.9126 420.284 59.7928 419.578 60.673C 418.872 61.3772 417.813 61.5532 416.754 61.5532C 414.988 61.5532 413.223 61.5532 411.634 61.7293C 410.046 62.0813 408.28 62.0813 406.691 62.2574C 405.985 62.2574 405.103 62.2574 404.397 62.4334C 403.337 62.7855 401.925 62.9615 400.689 62.9615C 399.807 62.9615 399.101 63.1376 398.218 63.3136C 396.1 64.0178 393.805 64.0178 391.51 64.7219C 388.686 64.898 386.214 65.9542 383.566 66.3063C 380.918 67.0104 378.447 67.8906 375.799 68.5948C 373.151 69.475 370.503 70.3552 367.855 71.4114C 365.207 72.2916 362.383 73.1718 359.558 73.8759C 359.029 73.8759 358.499 74.052 358.146 74.4041L 357.087 74.9322C 356.91 75.1082 356.734 75.2843 356.557 75.6363L 356.557 76.6926C 357.616 78.9811 359.205 80.7415 361.323 81.9737L 363.265 82.5019L 366.443 81.4456C 367.149 81.2696 367.855 81.0935 368.561 80.7415C 369.797 80.3894 370.856 79.8613 372.092 79.5092C 372.621 79.1571 373.151 79.1571 373.857 78.805C 376.328 77.7488 378.8 76.5165 381.624 75.9884C 384.272 74.7561 387.097 74.228 389.921 73.5239C 392.746 72.8197 395.217 71.7635 398.218 71.5874C 398.571 71.5874 398.748 71.4114 399.101 71.4114C 400.689 71.0593 402.102 70.7072 403.69 70.5312C 405.103 70.3552 406.338 70.3552 407.751 70.0031C 408.986 69.651 410.399 69.8271 411.811 69.475C 412.517 69.2989 413.4 69.2989 414.282 69.2989C 414.459 69.2989 414.635 69.475 414.812 69.475C 414.988 69.651 415.165 69.827 415.165 70.0031C 415.165 70.3552 414.988 70.7072 414.812 70.8833C 414.282 72.2916 413.576 73.6999 413.4 75.2843C 413.4 75.6363 413.223 76.1644 413.047 76.5165C 411.281 78.805 410.752 81.7977 409.516 84.2622C 408.633 87.2549 407.574 89.8955 406.338 92.7121C 405.985 93.7683 405.632 94.8246 405.456 96.0568L 404.926 97.9933C 403.69 100.458 403.337 103.274 402.278 105.739C 402.102 105.915 402.102 106.267 402.102 106.619C 402.102 107.675 401.749 108.556 401.219 109.612C 400.866 110.668 400.513 111.9 400.336 113.133C 399.983 114.541 399.983 116.125 399.277 117.358C 399.101 117.534 399.101 117.71 399.101 117.886C 398.924 119.998 398.042 121.759 397.865 123.695C 397.865 125.103 397.512 126.336 397.335 127.744C 397.159 129.152 396.806 130.384 396.453 131.617C 396.1 133.025 396.276 134.433 396.1 135.666C 395.923 135.842 395.923 136.018 395.923 136.018C 395.747 139.01 395.394 141.827 395.747 144.82C 395.747 146.052 395.747 147.108 395.923 148.34C 395.923 150.453 396.453 152.565 396.982 154.678C 397.688 157.318 398.748 159.783 400.689 161.895C 401.572 162.424 402.278 162.952 402.984 163.48L 404.573 164.536C 405.632 165.064 406.691 165.24 407.751 164.888Z"/>
<path id="path6_fill" d="M 434.54 143.235C 435.423 143.059 436.129 142.883 436.835 142.531C 438.6 141.475 440.366 140.595 441.778 139.186C 443.367 137.602 445.132 136.018 446.897 134.433C 448.663 132.497 450.781 130.737 452.546 128.8C 453.782 127.744 455.018 126.688 456.253 125.807C 456.43 125.631 456.606 125.631 456.783 125.631C 456.783 125.983 456.96 126.16 456.96 126.336C 457.136 127.216 456.783 128.096 457.136 128.8C 457.842 131.089 458.725 133.377 460.49 134.961C 463.138 136.898 463.491 137.074 466.316 138.306C 467.375 138.482 468.787 138.482 470.023 138.482C 474.965 138.658 478.673 136.546 482.38 133.553C 482.733 133.377 483.086 133.025 483.439 132.673C 484.322 131.969 485.028 131.089 485.91 130.208C 487.676 128.624 489.088 127.04 490.5 125.103C 491.206 124.223 491.736 123.343 492.265 122.639C 492.971 121.759 493.678 121.054 494.207 119.998C 494.384 119.294 494.737 118.766 494.913 118.238C 496.149 115.949 497.561 113.661 498.62 111.372L 499.327 109.788C 499.503 109.436 499.68 109.26 499.68 108.908C 500.033 107.851 500.033 106.971 499.68 106.267C 499.15 105.563 498.267 105.035 497.208 105.035L 497.032 105.035C 494.737 105.035 492.618 106.795 491.736 108.908C 491.559 109.436 491.559 109.788 491.383 110.14C 490.853 111.02 490.324 111.9 489.794 112.957C 488.911 114.365 488.205 115.949 487.146 117.358C 486.44 118.59 485.557 119.822 484.675 120.878C 484.145 121.759 483.439 122.639 482.733 123.343L 480.438 125.631C 478.673 127.744 476.378 129.152 473.906 130.56L 473.553 130.56C 472.494 131.089 471.258 131.617 470.023 131.969C 468.787 132.145 467.551 131.793 466.492 130.913L 465.433 129.856C 464.903 128.976 464.727 128.096 464.727 127.04C 464.727 124.047 465.08 120.878 465.786 117.886C 466.139 116.301 466.669 114.717 467.198 113.309C 467.198 112.957 467.198 112.781 467.375 112.605C 467.375 111.548 467.375 110.492 467.022 109.436C 465.963 107.851 464.374 105.915 462.255 105.563C 459.254 105.035 459.254 108.732 458.901 110.844C 458.725 111.02 458.725 111.196 458.725 111.372L 458.372 111.372C 457.489 110.668 457.136 109.612 456.43 108.908C 455.547 108.204 454.841 107.323 454.488 106.795C 452.899 105.739 451.664 105.035 450.428 104.155L 447.427 103.098C 446.191 103.098 445.132 103.098 444.249 103.274C 441.248 103.627 438.954 104.859 437.012 106.443C 435.423 107.675 434.011 108.908 432.775 110.316L 431.716 111.548C 430.304 113.485 429.068 115.421 427.832 117.358C 427.126 118.59 426.42 119.646 425.89 120.878L 423.772 126.336C 423.066 128.448 422.36 130.737 422.36 133.025C 422.36 135.49 423.066 137.954 425.008 139.891C 425.361 140.243 425.714 140.595 425.89 140.947C 427.479 141.827 428.891 142.531 430.304 143.059C 431.892 143.235 433.128 143.411 434.54 143.235ZM 432.952 134.609C 432.245 134.433 431.716 134.433 431.539 133.905C 431.01 131.793 431.01 131.089 431.539 129.504C 432.952 125.983 434.54 122.463 436.659 119.47L 437.188 118.59C 438.424 116.125 440.542 114.365 442.661 112.428C 443.19 112.076 443.72 111.724 444.426 111.372C 445.132 110.844 446.015 110.844 447.074 111.02C 447.427 111.372 447.78 111.9 448.31 112.252C 448.31 112.605 448.486 112.957 448.486 113.309C 448.486 114.541 448.663 115.949 448.663 117.358C 448.839 118.238 449.898 118.766 450.075 119.822C 449.898 119.998 449.898 120.35 449.898 120.35C 449.545 120.878 449.192 121.23 448.839 121.582C 447.78 122.815 446.544 123.871 445.309 124.927C 444.602 125.631 444.073 126.336 443.19 126.688C 440.895 128.272 438.954 130.208 437.012 132.145C 435.776 133.201 434.364 134.081 432.952 134.609Z"/>
<path id="path7_fill" d="M 496.163 150.453C 499.34 150.101 502.341 147.284 503.93 144.644C 506.401 140.947 506.401 136.546 505.872 132.321C 505.519 130.384 504.989 128.448 503.754 127.04C 503.577 126.864 503.401 126.688 503.401 126.336C 502.341 124.223 500.576 122.991 499.693 120.878C 497.575 116.653 498.987 111.548 501.635 107.851C 502.871 106.267 504.636 105.035 506.225 103.979C 507.99 102.746 510.109 103.274 512.05 102.746C 513.463 102.218 514.522 100.986 514.875 99.7537C 515.228 98.1693 514.875 96.585 513.286 95.5287C 511.344 94.2965 507.814 95.1766 505.695 95.8808C 502.871 97.1131 500.046 98.6974 497.752 100.81C 493.868 104.155 491.043 109.26 490.867 114.541C 490.867 118.062 491.926 120.878 493.515 123.695C 494.751 125.983 497.398 128.624 498.105 130.913C 498.634 133.201 498.281 135.49 497.752 137.602L 497.752 137.778C 496.692 139.891 497.045 141.827 494.574 143.235C 491.22 144.996 487.336 144.996 485.395 141.651C 484.159 139.538 482.04 142.355 482.04 143.763C 482.04 145.524 483.982 147.636 485.218 148.692L 486.983 149.925C 489.278 151.157 493.691 150.629 496.163 150.453Z"/>
</defs>
</svg>
