<?xml version="1.0" standalone="no"?>
<!DOCTYPE svg PUBLIC "-//W3C//DTD SVG 20010904//EN"
 "http://www.w3.org/TR/2001/REC-SVG-20010904/DTD/svg10.dtd">
<svg version="1.0" xmlns="http://www.w3.org/2000/svg"
 width="1302.326965pt" height="184.682651pt" viewBox="0 0 1302.326965 184.682651"
 preserveAspectRatio="xMidYMid meet">
<metadata>
Created by potrace 1.12, written by Peter Selinger 2001-2015
</metadata>
<g transform="translate(-7.673035,196.682651) scale(0.100000,-0.100000)"
fill="#000000" stroke="none">
<path d="M1953 1960 c-24 -5 -57 -16 -75 -25 -117 -56 -457 -355 -998 -880
-91 -88 -212 -205 -269 -260 -58 -55 -205 -201 -328 -325 -218 -220 -239 -249
-173 -233 55 12 217 67 259 87 54 25 175 131 301 262 98 102 130 137 310 334
58 63 128 140 156 170 28 30 73 80 100 110 90 100 239 262 347 375 37 39 67
65 67 58 0 -6 -6 -18 -12 -25 -120 -129 -431 -665 -517 -893 -13 -33 -26 -69
-31 -80 -30 -79 -32 -98 -20 -157 14 -62 42 -113 73 -132 19 -12 31 -2 87 74
23 32 168 209 180 220 3 3 30 34 60 70 141 168 291 317 650 650 74 69 160 148
190 176 30 28 75 69 100 90 24 21 55 49 68 62 23 22 32 27 32 17 0 -5 -126
-153 -140 -165 -21 -18 -308 -348 -444 -510 -84 -100 -246 -328 -246 -346 0
-3 -8 -18 -18 -32 -48 -70 -87 -218 -79 -301 14 -149 77 -231 177 -231 22 0
40 6 43 13 3 7 -1 51 -9 98 -26 157 -18 212 48 334 58 107 273 398 424 575 26
30 150 176 209 245 23 28 69 82 101 120 92 108 217 265 252 317 38 56 40 80 7
102 -32 21 -64 20 -95 -4 -17 -13 -41 -20 -73 -20 -74 0 -147 -42 -324 -187
-56 -45 -107 -88 -115 -95 -7 -7 -47 -42 -88 -78 -41 -36 -77 -67 -80 -70 -3
-3 -48 -43 -100 -90 -52 -47 -97 -87 -100 -90 -3 -3 -39 -34 -80 -70 -41 -36
-77 -67 -80 -70 -31 -33 -193 -161 -200 -158 -6 2 3 28 18 58 87 167 141 269
159 300 36 62 158 253 202 315 118 166 182 268 179 283 -4 20 -43 24 -105 12z"/>
<path d="M6705 1877 c-66 -45 -165 -106 -220 -137 -118 -66 -128 -87 -42 -82
l59 3 -19 -31 c-39 -67 -180 -166 -468 -327 -56 -31 -306 -154 -350 -173 -109
-45 -175 -63 -175 -48 0 6 26 41 57 77 88 101 220 250 277 311 28 30 89 98
136 150 47 52 100 112 119 132 66 73 67 76 35 109 -15 16 -35 29 -45 29 -9 0
-43 -21 -76 -47 -60 -48 -224 -184 -233 -193 -3 -3 -48 -43 -100 -90 -129
-115 -360 -345 -456 -456 -196 -224 -378 -497 -414 -620 -11 -35 -9 -45 10
-87 23 -48 80 -107 104 -107 7 0 32 38 54 85 51 105 135 230 244 365 46 57 91
114 101 127 36 45 50 33 178 -159 67 -101 132 -195 143 -209 12 -14 34 -43 50
-65 53 -70 160 -168 210 -194 67 -34 157 -34 243 0 35 14 65 31 68 38 10 26
-16 51 -79 81 -111 51 -290 215 -443 405 -83 104 -118 163 -103 180 5 7 42 23
82 35 40 13 91 30 113 38 22 8 65 23 95 33 80 26 176 63 212 81 10 5 22 9 28
9 5 0 39 14 75 30 36 17 68 30 70 30 8 0 266 128 314 156 220 127 339 260 371
411 10 50 10 68 0 93 -12 29 -82 101 -98 99 -4 0 -61 -37 -127 -82z"/>
<path d="M9965 1849 c-22 -5 -50 -11 -63 -14 -43 -10 -197 -152 -358 -330 -88
-98 -271 -316 -319 -380 -16 -22 -32 -42 -35 -45 -3 -3 -17 -21 -31 -40 -50
-66 -64 -77 -245 -198 -189 -127 -325 -208 -384 -232 -19 -7 -39 -16 -45 -20
-5 -3 -30 -12 -55 -19 -25 -7 -58 -17 -74 -22 -42 -13 -150 -11 -164 3 -43 43
29 179 172 324 119 120 227 186 344 209 27 6 32 4 32 -13 0 -24 -42 -62 -128
-117 -34 -22 -62 -45 -62 -52 0 -35 99 -40 190 -10 95 31 193 122 206 193 16
87 -26 119 -156 118 -106 0 -177 -21 -350 -102 -51 -24 -229 -136 -240 -152
-9 -12 -276 -188 -381 -251 -120 -71 -207 -115 -249 -124 -26 -6 -30 -4 -30
15 0 64 123 182 358 345 112 78 118 90 80 150 -35 53 -67 62 -147 40 -114 -32
-138 -31 -227 10 -171 80 -184 85 -237 85 -57 -1 -80 -13 -91 -47 -9 -29 18
-86 55 -117 16 -14 29 -29 29 -33 0 -5 -57 -50 -127 -100 -71 -50 -144 -106
-164 -125 -67 -61 -277 -176 -394 -216 -105 -35 -148 -43 -210 -40 -59 3 -60
3 -63 34 -5 52 58 164 91 164 7 0 23 -9 37 -20 14 -11 32 -20 41 -20 34 0 180
68 264 124 235 156 289 290 150 371 -47 28 -87 31 -162 11 -216 -57 -466 -271
-562 -481 -28 -59 -39 -180 -22 -241 49 -180 264 -165 631 46 203 117 385 248
545 393 22 20 45 19 128 -4 27 -8 47 -18 45 -24 -2 -5 -42 -42 -90 -82 -88
-74 -119 -108 -159 -178 -18 -32 -23 -56 -23 -122 -1 -79 0 -84 30 -113 57
-58 137 -61 250 -10 79 36 311 190 372 248 26 24 32 11 32 -76 0 -158 53 -210
203 -200 110 8 266 69 447 175 101 59 148 88 187 114 53 37 70 37 45 2 -34
-49 -93 -161 -102 -194 -13 -43 9 -79 47 -79 19 0 47 21 107 82 77 77 342 298
358 298 18 0 5 -47 -39 -143 -55 -118 -62 -177 -27 -224 34 -46 128 -43 219 8
73 40 135 79 181 114 27 20 62 46 78 58 76 57 166 130 335 275 78 67 101 82
101 66 0 -17 -144 -189 -256 -304 -50 -52 -94 -102 -97 -111 -2 -8 1 -29 9
-47 12 -29 17 -32 59 -32 39 0 58 8 123 52 68 46 148 104 162 118 3 3 21 17
42 32 20 15 42 33 50 40 45 43 168 138 178 138 7 0 2 -12 -10 -27 -63 -81
-119 -177 -125 -214 -4 -22 -4 -65 0 -95 9 -71 49 -115 121 -131 42 -10 57 -9
108 8 64 22 183 99 321 207 49 39 93 68 97 66 4 -3 8 -29 8 -57 3 -253 229
-263 640 -27 203 117 385 248 545 393 22 20 45 19 128 -4 27 -8 47 -18 45 -24
-2 -5 -42 -42 -90 -82 -88 -74 -119 -108 -159 -178 -18 -32 -23 -56 -23 -122
-1 -79 0 -84 30 -113 80 -80 200 -57 405 80 86 57 197 137 209 151 3 3 14 12
26 20 119 81 414 365 414 399 0 30 -22 24 -87 -24 -264 -194 -656 -432 -743
-451 -26 -6 -30 -4 -30 15 0 64 123 182 358 345 112 78 118 90 80 150 -35 53
-67 62 -147 40 -114 -32 -138 -31 -227 10 -171 80 -184 85 -237 85 -57 -1 -80
-13 -91 -47 -9 -29 18 -86 55 -117 16 -14 29 -29 29 -33 0 -5 -57 -50 -127
-100 -71 -50 -144 -106 -164 -125 -67 -61 -277 -176 -394 -216 -105 -35 -148
-43 -210 -40 -59 3 -60 3 -63 34 -5 52 58 164 91 164 7 0 23 -9 37 -20 14 -11
32 -20 41 -20 34 0 180 68 264 124 235 156 289 290 150 371 -47 28 -87 31
-162 11 -134 -36 -277 -128 -418 -271 -55 -56 -134 -126 -175 -156 -41 -31
-106 -78 -144 -106 -71 -53 -230 -137 -278 -149 -38 -8 -50 19 -36 77 18 69
79 155 223 309 130 139 145 158 145 182 0 18 -8 27 -33 36 -62 22 -108 15
-157 -24 -41 -33 -203 -154 -325 -244 -54 -40 -95 -64 -95 -56 0 3 20 34 45
68 25 35 64 90 87 123 23 33 45 62 49 65 12 8 20 54 12 65 -15 20 -53 35 -87
35 -27 0 -39 -7 -60 -35 -15 -20 -31 -33 -37 -30 -5 4 -28 -9 -51 -26 -94 -72
-119 -89 -265 -187 -220 -147 -449 -282 -479 -282 -37 0 7 88 166 325 49 74
90 143 90 154 0 15 -9 22 -35 27 -54 10 -90 -1 -153 -48 -31 -23 -97 -72 -147
-109 -126 -93 -145 -104 -145 -88 0 41 257 325 621 688 148 148 269 273 269
278 0 32 -60 41 -145 22z m-3055 -764 c0 -23 -53 -77 -138 -142 -75 -57 -183
-123 -203 -123 -38 0 27 74 157 181 106 86 184 122 184 84z m4700 0 c0 -23
-53 -77 -138 -142 -75 -57 -183 -123 -203 -123 -38 0 27 74 157 181 106 86
184 122 184 84z"/>
<path d="M3942 1668 c-17 -18 -59 -71 -94 -118 l-64 -85 -114 -12 c-63 -7
-158 -18 -210 -23 -124 -14 -252 -31 -442 -61 -84 -13 -101 -31 -50 -50 15 -6
37 -19 48 -30 37 -35 125 -48 317 -49 128 0 177 -3 177 -12 0 -22 -277 -284
-375 -355 -90 -64 -211 -142 -302 -194 -120 -69 -113 -67 -113 -38 0 25 98
169 150 219 3 3 39 46 79 95 41 50 84 100 94 112 27 30 16 62 -29 91 -28 18
-42 22 -58 14 -17 -7 -26 -4 -47 20 -33 35 -70 36 -160 7 -158 -51 -319 -159
-485 -324 -247 -246 -313 -381 -233 -478 26 -32 36 -37 72 -37 26 0 62 11 94
28 76 39 205 136 263 198 56 59 76 68 66 29 -12 -47 -8 -192 5 -214 18 -28 60
-35 102 -17 47 19 196 120 313 211 89 70 126 91 107 63 -34 -54 -44 -180 -18
-241 18 -43 57 -85 94 -99 36 -14 130 -2 182 24 86 41 348 230 438 316 21 20
23 8 7 -39 -20 -56 -20 -156 -1 -202 18 -43 57 -85 94 -99 36 -14 130 -2 182
24 99 47 330 218 534 396 253 219 315 281 315 314 0 18 -5 28 -14 28 -8 0 -52
-27 -98 -61 -97 -70 -480 -329 -547 -369 -25 -15 -84 -51 -131 -79 -61 -38
-95 -53 -125 -54 -37 -2 -40 0 -43 27 -2 16 2 41 9 55 14 28 109 173 118 181
4 3 26 30 51 60 121 149 321 347 407 405 37 24 57 29 155 36 206 16 525 50
596 65 41 8 27 40 -30 67 -98 46 -180 60 -363 61 l-100 1 -3 27 c-2 19 9 46
37 87 62 90 53 111 -45 111 -72 0 -76 -3 -186 -150 l-64 -85 -99 1 c-55 1
-158 3 -230 5 l-130 4 -3 27 c-2 19 9 46 37 87 62 90 53 111 -45 111 -58 0
-65 -3 -92 -32z m121 -428 c126 0 167 -3 167 -12 0 -7 -60 -71 -132 -142 -113
-110 -164 -149 -342 -269 -115 -77 -230 -152 -255 -167 -25 -15 -84 -51 -131
-79 -61 -38 -95 -53 -125 -54 -37 -2 -40 0 -43 27 -2 16 2 41 9 55 14 28 109
173 118 181 4 3 26 30 51 60 80 99 210 235 315 330 85 77 94 82 150 76 28 -3
125 -6 218 -6z m-1223 -189 c0 -5 -19 -25 -42 -46 -222 -195 -483 -405 -505
-405 -20 0 -16 26 10 65 32 50 210 222 289 280 38 28 96 64 130 82 60 31 118
43 118 24z"/>
</g>
</svg>
